<?xml version="1.0" encoding="utf-8"?>
<!-- Generator: Adobe Illustrator 22.0.0, SVG Export Plug-In . SVG Version: 6.00 Build 0)  -->
<svg version="1.1" id="Capa_1" xmlns="http://www.w3.org/2000/svg" xmlns:xlink="http://www.w3.org/1999/xlink" x="0px" y="0px"
	 viewBox="0 0 537 560" style="enable-background:new 0 0 537 560;" xml:space="preserve">
<style type="text/css">
	.st0{fill:#000333;}
	.st1{fill:#DDDDDD;}
	.st2{fill:#FFC11C;}
	.st3{fill:#7C7C7C;}
</style>
<g>
	<path class="st0" d="M283.2,546c1.1-1.4-0.7-1.2-1-1.3c-4.3-1.9-8.6-3.6-12.9-5.4c-11.1-4.6-21.7-10.4-33.2-13.9
		c-12.5-3.8-25.1-6.1-38.3-3.7c-7,1.3-14.3,0.9-21.5,0.9c-14.2,0-28-2.4-41.7-5.3c-4.4-0.9-8.3-3.5-12.5-5.1
		C99.3,503,78.9,489.9,59.6,475c-5.3-4.1-10-8.9-15-13.4c-8.5-7.5-18.1-13.5-27.1-20.3c-0.3-0.2-0.7-0.6-1,0.1c0-0.7,0-1.3,0-2
		c2.7,1.1,4.1-0.9,4.8-2.7c1.7-4.2,3.2-8.4,5.3-12.4c1-1.9,0.6-4-0.2-5.8c-1.9-4.2-1.6-9-3-13.3c-0.6-1.9,0.1-3.6,1.5-5
		c2.4-2.4,3.2-5.4,2.8-8.7c-0.2-2.5-0.3-5,0-7.5c0.2-2.4,1.5-3.6,3.7-4c3-0.6,6-4.1,6.2-7.2c0.1-0.9-0.6-1.3-1-1.9
		c-4.5-5.9-9.1-11.8-13.6-17.8c-2.8-3.7-3-6.1-0.7-10.1c18.3-31.9,36.7-63.7,55-95.6c1.7-3,3.9-4.5,7.6-4.5c35.9,0.1,71.8,0,107.6,0
		c14.1,0,28.2-0.1,42.2-0.1c1.9,0,3.7-0.1,5.4-0.9c0.7-0.4,2.6-1,0.1-2c-1.3-0.5-1.3-2.6-0.2-3.7c0.8-0.8,2-1.1,0.7-2.8
		c-1.2-1.5,1.2-1.6,2-2.5c-0.8-1.9-3.7-1.5-4.2-3.9c-0.4-2.3,0.6-3.8,2.4-5c-2.6-2.9-2.5-3.2,0.3-5.3c0.7-0.5,1.1-2.7,0.7-3.1
		c-2.2-1.9-0.3-2.1,0.9-2.5c1.7-0.6,2.9-1.5,3.4-3.3c0.2-0.7,0.1-1.2-0.7-1c-0.8,0.2-1.5,0.6-1.6-0.6c-0.1-1,0.1-2.1,1.3-2.4
		c0.9-0.2,1.8-0.2,3-0.3c-2-1.1,0.5-4.7-2.3-4.6c-2.2,0.1-3.5-1.4-5.4-1.5c-2.3-0.1-4.1-0.4-4.3-3.5c-0.1-1.7-2.6-2.5-4.2-1.6
		c-2.1,1.3-2.9,0.3-3.2-1.6c-0.2-1.5-0.9-1.7-2.2-1.2c-1.7,0.7-3.4,1-5.3,0.2c-1.3-0.5-2.6,0.2-4,0.3c-0.2-1.4,0.6-2.1,1.4-2.9
		c0.5-0.4,1.2-0.8,0.9-1.6c-0.3-0.7-1-0.9-1.6-1c-1.9-0.1-3-0.2-2.1-2.9c0.6-1.7,0.5-4,1.1-5.9c-0.4-0.2-0.6-0.3-0.7-0.3
		c-1,0.4-2.1,1.7-3.1,0.7c-1-0.9,0.3-2,0.7-2.9c1.1-2.3-0.3-4.2-1.3-5.8c-2.4-4-5.2-7.8-7.9-11.6c-1.3-1.8-3.4-2.3-5.2-3.4
		c-1.5-0.9-3.5-1.4-2.9-4c0.2-0.9-0.5-1.6-1.4-0.9c-1.2,0.9-2.2,0.4-3.3,0.1c-2.3-0.7-4.7-1.3-7-2.1c-1.7-0.6-3.2-1.4-4.4-2.8
		c-0.9-1-1.8-2-3-2.7c-1.5-0.9-3.2-1.5-0.9-3.3c0.3-0.2,0.4-0.7,0.1-0.8c-0.7-0.2-1.4-0.3-2.2-0.3c-0.4,0-0.5,0.3-0.4,0.7
		c0.2,1,0.6,2-0.8,2.5c-1.4,0.6-2-0.6-2.6-1.4c-1.2-1.4-2.9-1.7-4.4-2.2c-2-0.8-3.5-1.7-3.8-4.1c-0.3-2.4-2.3-3.8-3.7-5.6
		c-1.1-1.3-2-2.6-2.3-4.4c-0.2-1.5-1.1-2.2-2.7-1.8c-2.3,0.6-3.8-0.3-5.2-2c-2.3-2.6-4.7-5-5.4-8.6c-0.2-1.3-1.2-1.7-2.4-1.9
		c-1.8-0.2-2.5-1.4-2.7-3c0-0.3-0.1-0.7-0.1-1c-1-4.3-2.5-5.3-6.8-4.9c-1.1,0.1-2.1,0.6-3.2,0.3c-1.4-0.3-2.6-0.6-2.7-2.3
		c-0.2-1.8-1.7-2.1-3.1-2.4c-1.6-0.3-3.1-0.6-4.5-1.4c-1-0.5-1.7-0.8-1.3-2.2c0.3-1.2,0.9-1.7,2.1-1.6c8.4,0.1,16.8,0.1,25.1,0.1
		c9,0.1,18.1,0.2,27.1,0.3c1.3,0,1.7-0.4,1.6-1.7c-0.1-5.4,0-10.9,0-16.3c0-16.9,0.1-33.9,0.1-50.8c0-1.6-0.2-3.2,1.3-4.3
		c0.3-0.2,0-0.6-0.4-0.7c76.1,0,152.2,0,228.4,0c0.2,9.8,0.4,19.6,0.6,29.3c0.3,19,0.5,38,0.9,57c0.3,16.8-1.2,33.6-2.1,50.4
		c-0.8,14.4-1.9,28.7-2.9,43.1c-1.4,20.4-2.9,40.7-5.4,61c-0.4,3-0.3,6-0.5,9c-0.1,1.5,0.3,2.2,2,1.5c3.1-1.2,6.4-1.7,9.8-1.3
		c2.7,0.3,5.5,0.2,8.2-0.3c4.3-0.8,8.2,1.2,12.2,2.1c1.8,0.4,3.4,0.7,5-0.3c2-1.3,3.9-0.8,5.4,0.8c1.9,2,3.7,2.4,6.6,1.9
		c3.8-0.7,8.4,0.5,10.2,3.5c1.9,3.3,5.1,3.3,7.4,5.3c2.2,1.9,4.8,3.3,7.4,4.7c1.7,0.9,2,2,1.4,3.6c-0.2,0.5-0.3,1.1-0.5,1.7
		c-0.2,0.8-1.1,1.9,0.1,2.4c0.9,0.4,2.2,0.4,3.1-0.4c1-0.8,0-1.7-0.3-2.4c-0.9-1.7-0.7-2.8,1.5-2.6c0.8,0.1,1.2-0.4,1.4-1.1
		c0.3-1.8,1.3-3.2,2.6-4.4c1.1-1,1-2.4,0.7-3.7c-0.3-1.1-0.5-2.1-0.7-3.2c-0.1-0.6-0.3-1.4,0.6-1.6c0.6-0.1,1.2,0,1.2,0.8
		c0,0.4,0.3,0.7,0.6,0.5c1.7-1.1,3.4,0.2,5.4,0c-1.2-1.9-2.6-3-4.3-3.8c-0.8-0.4-1.8-0.7-2.2-1.6c-1.3-2.9-3.9-4.2-6.5-5.6
		c-0.7-0.4-1.2-0.9-1.7-1.4c-0.8-0.9-1.2-1.6-0.1-2.7c0.9-0.9,1.4-1.5,2.9-0.8c3.6,1.7,6.5,4.2,9.5,6.7c5.6,4.6,11.5,9.1,18.5,11.7
		c5.1,1.9,8.8,6.2,13,9.6c1.8,1.4,3.7,2.5,6,2.7c0,0.5,0,1,0,1.5c-1.3-0.2-1.7,0.5-1.9,1.7c-0.2,1.3,0.3,3.5-2.5,2.4
		c-0.4-0.2-1.2,0.5-1.8,0.7c-1,0.4-2,1.3-3,1.3c-3.4-0.1-4.5,2.3-5.7,4.7c-2,3.9-5.2,6.8-8.5,9.4c-23.2,18.2-46.4,36.3-69.7,54.5
		c-3.2,2.5-7.2,3.5-11,4.8c-4.2,1.5-8.5,2.4-12.1,5.2c-2.8,2.1-3.3,5.3-4.3,8.3c-0.2,0.7,0.2,1.2,0.7,1.5c2.1,1.4,1.8,3.6,1.2,5.4
		c-1,3.1-2.6,5.9-5.2,8.1c-3.1,2.5-3.4,4.7-1,7.7c2.6,3.1,4.4,6.5,5.8,10.2c0.5,1.3,1.4,2.2,2.3,3.2c1.9,2,2.1,4.1,0.3,6.2
		c-0.7,0.9-0.8,1.7-0.7,2.8c0.3,2.4,0.5,4.8,0.2,7.3c-0.4,3.4-2.3,4.6-5.5,3.5c-4-1.4-4.3-1.2-7.1,1.8c-2.6,2.8-6,4.9-7.7,8.5
		c-0.3,0.7-1.2,0.9-1.9,1c-2.8,0.4-3.7,2.2-3.6,4.8c0,0.4,0,0.8,0,1.3c0,0.9,0.3,2.3-0.1,2.6c-1,0.6-1.7-0.7-2.5-1.2
		c-0.4-0.2-0.9-0.6-1-0.6c-1.8,1.5-1.6-0.3-1.9-1.2c-1,0.2-1.4,1-1.9,1.6c-1.5,1.7-3.1,2-5.2,1c-3-1.4-4.1-1.1-6.3,1.5
		c-0.5,0.6-0.9,1.2-1.5,1.7c-1.9,2-2.2,2-3.2-0.6c-0.5-1.2-1.5-1.9-2.8-1.3c-1.4,0.7-2.4,2.1-1.5,3.5c1.6,2.4,1.6,4.1-0.8,6
		c-1.1,0.9-0.2,1.9,1,2c3.3,0.3,4.4,2.4,4.7,5.2c0.1,1.1,0.5,1.9,1.5,2.3c1.4,0.5,1.5,1.7,1.4,2.9c-0.1,1.3-1.1,1.7-2.2,2
		c-3.5,0.8-7,1.7-10.5,2.5c-5.3,1.3-9.1,4.4-11.7,9c-1.1,1.9-2.1,3.8-3.2,5.7c-1,1.5-1.3,2.9-0.5,4.7c0.8,1.7-0.8,3.3-2.7,2.8
		c-1.4-0.4-2.5-1.3-3.6-2.3c-1.4-1.2-3.1-1.6-4.7-1.2c-3,0.9-6,1.8-8.4,4.2c-3.3,3.4-7.5,5.6-11.3,8.4c-2.3,1.6-4.3,3.4-5.3,6.1
		c-0.7,2-2.4,3.3-4.4,4.3c-4.4,2.3-6.2,6.8-4.7,11.6c0.8,2.6,1.5,5.1,2.2,7.7C285.2,546,284.2,546,283.2,546z M375.5,455.3
		c0.2,0.1,0.4,0.4,0.5,0.4c0.4-0.3,0.2-0.6,0-0.9c-0.1-3.7,0.6-6.7,5-7.4c0.4-0.1,1-0.5,1.2-0.9c1.9-4.2,6.4-6.1,8.8-9.9
		c0.9-1.4,2.6-1.4,4.2-1.1c1,0.2,1.9,0.6,2.9,0.8c2.4,0.7,3.5,0,3.9-2.4c0.3-2.3,0.2-4.5-0.2-6.8c-0.3-1.6-0.1-2.9,1.1-4.2
		c1.3-1.4,1.2-3.1-0.1-4.3c-1.9-1.9-3-4.2-4-6.6c-0.9-2.3-2.2-4.3-3.8-6.2c-3.6-4.4-3.4-7,0.8-10.6c2.5-2.1,2-2.5,0.4-5.3
		c-1.2-2-2.6-0.2-3.9,0.3c-1.2,0.5-2,1.4-2.8,2.4c-1.1,1.5-3,2.8-4.5,1.6c-2.3-1.8-4.1-1-6.3-0.3c-1.6,0.5-3.5,1.7-5.1,0.6
		c-4.3-2.9-7.8-1.6-10.9,1.8c-3.3,3.6-7.4,4.1-11.9,3.7c-2.9-0.3-5.4-1.7-7.9-3c-4.8-2.3-3.4-2.9-7.8,1c-1.1,0.9-1.2,1.9-1.1,3.1
		c0.2,1.7-0.1,3.3-0.9,4.8c-0.5,1-1.4,1.9-1.4,3.2c0.7,0,1.4,0,2,0c4.4-0.2,6,1.5,5.8,6c-0.1,1-0.8,2-0.2,2.9
		c1.4,2.4,0.4,4.5-0.4,6.7c-0.9,2.5-1.9,5-2.7,7.5c-1.1,3-0.9,3.2,2.2,3.4c2.3,0.2,5.2,0,6.2,2.5c1.8,4.4,5.1,4.6,9,4.1
		c0.7-0.1,1.3,0,2,0c3.9,0,5.8,2.5,4.5,6.2c-0.4,1.2-0.7,2.4-1.2,3.6c-0.5,1.2,0,2.3,0.8,2.6c2.5,0.7,5,1.2,7.5,1.6
		c0.3,0.1,0.7-0.3,1.1-0.6C371.8,453,371.8,453,375.5,455.3z M284.1,544.1c0.1,0.1,0.2,0.2,0.3,0.2c0-0.2,0-0.4,0-0.5
		c-0.6-2-1.2-4-1.7-6c-1.2-4.7,0.9-9.7,5.2-11.9c1.8-1,3.5-2.1,4.2-4.1c1-2.8,3.1-4.7,5.5-6.4c3.9-2.8,8.2-5.2,11.7-8.6
		c4.9-4.8,10-5.3,15.6-1.6c0.3,0.2,0.7,0.4,1.1,0.6c0.6,0.3,1.1,0.3,1.7-0.1c0.6-0.5,0.3-1.1,0.1-1.6c-0.9-1.6-0.3-3.1,0.5-4.5
		c1.1-1.9,2.2-3.8,3.2-5.7c2.9-5.5,7.4-8.9,13.5-10.3c3.2-0.7,6.4-1.5,9.5-2.3c1.8-0.5,2.2-1.9,0.7-2.8c-1.5-0.9-1.9-2.1-2.1-3.7
		c-0.3-2.1-1.3-3.8-3.9-3.8c-1.1,0-1.6-0.7-2-1.6c-0.5-1-0.1-1.9,0.7-2.4c1.7-1.2,1.9-2.4,0.7-4.2c-1.2-2-0.5-4.1,1.7-5.2
		c2.1-1.1,3.6-0.2,4.4,1.7c0.3,0.7,0.6,1.1,1.2,0.5c1-1.1,2-2.2,2.8-3.5c0.6-0.9-0.6-1.4-0.8-2.2c-0.2-0.8-0.2-1.7,0.1-2.5
		c0.4-1.3,0.9-2.5,1.3-3.8c0.7-2.4-0.6-4.2-3.1-4.2c-1.8,0-3.7-0.1-5.5,0.2c-2.8,0.5-4.6-0.6-5.6-3c-1.1-2.5-2.9-3.6-5.7-3.7
		c-1.3,0-2-0.1-1.4,1.5c0.7,1.8-0.1,2.9-1.7,3.6c-2.3,1.1-4.7,2.2-6.9,3.5c-2,1.2-3.5,0.9-4.8-0.8c-0.8-1.1-2-1.7-3-1
		c-3.8,2.4-9,3.5-9.1,9.5c0,1.5-0.8,1.7-1.9,0.7c-1.3-1.1-2.6-2.1-4-3.1c-1.8-1.3-3.7-1.4-4.7,0.6c-1.9,3.5-4.7,4.1-8.2,3.7
		c-0.8-0.1-1.9-0.4-2.3,0.4c-1.3,2.6-1.8,5.4-3.4,8c-0.7,1.2-0.7,1.6-2.2,1.4c-4-0.3-7.1,0.5-8.2,4.4c-0.6,2.2-1.6,4.4-2.6,6.5
		c-0.8,1.7-0.2,2.6,1.4,2.9c5.7,0.8,9.4,4.8,13.3,8.4c1,0.9,1.9,2,1.7,3.5c-0.2,2.1,0.1,4.2,0.3,6.3c0.3,3.9-2.8,8.5-6.6,9.5
		c-1.3,0.3-2.1,1-2.6,2.1c-0.5,1-1,2.1-1.7,3.1c-1.2,1.9-2.7,2.9-5.3,2.1c-3.1-1-6.3-1.7-8.7-4c-0.5-0.5-1.3-0.8-2-1.1
		c-1-0.5-2-0.1-2.8,0.6c-0.7,0.7-0.5,1.7,0,2.6c0.4,0.7,1.2,1.4,1.2,2.1c0.2,4.6,3.1,8.1,4.5,12.3c1.1,3.3,2,6.3,0.8,9.6
		c-0.4,1-0.2,1.7,0.9,2.2C274.2,540,279.2,542.1,284.1,544.1z M242.5,241.2c3.9-0.5,7.3,0.5,10.7,1.1c6.7,1.1,13.5,1.5,19.9,3.5
		c5.5,1.7,11,3.5,16.4,5.3c1.2,0.4,2.2,0.7,3.4-0.3c1-0.8,2.1-0.7,3.4,0.4c0.6,0.5,2.7,2.6,3.5-0.7c0.4-1.7,1.9-0.4,2.5,0.3
		c0.5,0.6,0.7,1.7,0.9,2.5c0.3,1.3,1.2,1.9,2.3,1.9c4.4-0.1,7.3,2,9,6c0.3,0.6,0.3,1.5,1.1,1.6c3,0.3,5.9,1.2,8.9-0.8
		c1.6-1.1,3.8-1.9,6.2-0.8c2.3,1,3.9,2.8,6,4.1c1.8,1.1,3.5,1.7,5.2-0.1c0.7-0.7,1.6-0.6,2.6-0.5c2.6,0.2,5.1,1.2,7.7,0.7
		c5.7-1,5.7-1.1,6.2,4.4c0.2,1.8,0.7,1.8,2.2,1.2c1.3-0.6,2.7-1.2,4.3-0.6c3.7,1.5,8.4-0.5,9.9-4.4c0.8-2.1,2.1-3.3,4.5-3.2
		c2.4,0.1,4.9,0,7.3,0c5.2,0,5.2,0,5.7-5.2c1.3-14.3,3.1-28.6,4.1-43c1.2-18.4,2.6-36.8,3.8-55.2c1-16.1,2.6-32.2,2.6-48.4
		c0-16.4-0.3-32.8-0.5-49.3c-0.2-14.5-0.5-29-0.7-43.5c0-1.5-0.4-2-2-2c-4.2,0-8.4-0.1-12.6-0.1c-48.2-0.1-96.4-0.1-144.6-0.2
		c-20.9,0-41.7,0-62.6,0c-0.7,0-1.3,0-2,0c-2.9,0.3-3.4,0.8-3.4,3.8c-0.1,16.2-0.1,32.4-0.2,48.5c0,6.5,0,12.9,0,19.4
		c0,1.3,0,2.3-1.8,2.2c-9.2-0.1-18.4-0.1-27.7-0.2c-8.3-0.1-16.6-0.2-24.9-0.2c-0.5,0-1.3-0.2-1.5,0.6c-0.2,0.9,0.5,1.1,1.1,1.4
		c1.2,0.6,2.6,0.8,3.9,1.1c1.3,0.3,3,0.6,3.3,1.9c0.7,3.1,2.7,2.8,4.9,2.5c5.4-0.7,7.2,0.4,8.3,5.7c0.4,1.7,0.7,3.1,2.9,3.4
		c1.2,0.1,2.1,1.1,2.3,2.4c0.6,3.5,3.1,5.8,5.3,8.4c1.1,1.3,2.3,1.8,4,1.4c2.2-0.5,3.6,0.4,4,2.7c0.3,1.8,1.4,3,2.4,4.3
		c1.6,2,3.6,3.8,3.8,6.6c0.1,0.7,0.6,1.2,1.2,1.5c2.6,1.4,5.8,1.8,7.7,4.7c0.9-1.4-0.9-3,0.9-3.5c1.3-0.3,3-0.4,4.1,0.6
		c1.4,1.3-0.5,2.1-0.8,3.4c1.5,0.5,2.6,1.6,3.5,2.7c3.3,3.9,8.2,4.2,12.6,5.6c0.6,0.2,1.1-0.3,1.6-0.4c1.6-0.4,3,0,2.8,1.9
		c-0.2,1.6,0.6,2.4,1.8,2.9c4.4,1.6,7.1,4.9,9.4,8.7c2.2,3.6,5.3,6.7,6.3,11c0.4,1.5,0.2,3.1,2.3,3.7c1,0.3,0.7,1.5,0.3,2.2
		c-0.9,1.8-0.2,3.8-0.9,5.6c-0.3,0.7,0.3,0.8,0.8,0.9c3.7,1.2,3.9,1.7,1.9,4.9c2.4,0.2,4.7,1.1,7.1,0c1.8-0.8,2.9-0.3,3.1,1.8
		c0.1,1.1,0.5,1.6,1.8,1.1c2.8-1.1,5.1,0.1,6,3c0.2,0.5-0.1,1.5,0.5,1.5c2.5,0.1,4.7,2.2,6.9,1.7c3.2-0.7,3.2,0.9,3.3,2.9
		c0,0.4,0.1,0.8,0.1,1.2c0.1,1.2,1.8,2.1,1.1,3.1c-0.7,1-2.1-0.6-3.4,0c1.2,1.4,1.7,3,0.5,4.7c-1,1.4-2.5,2.2-3.9,2.8
		c0.6,1.4,3.1-0.2,2.8,2.2c-0.2,1.7-1.7,0.8-2.4,1.2c-0.8,0.8,2.7,3.4-1.3,2.7c-0.7-0.1-1.4-0.5-1.7,0.4c-0.3,0.9,0.4,1.4,1.1,1.7
		c2.3,0.9,1.6,1.4,0,2.4c-2.8,1.7-2.7,3.9,0,5.5c0.4,0.2,0.8,0.4,1.1,0.6c1.2,1,2.7,2,0.1,3.1c-0.4,0.2-1,0.5-0.6,0.8
		c1.9,1.9,0.1,2.7-1,3.6c-0.5,0.4-0.8,0.9-0.5,1.5c0.4,0.7,0.9,0.1,1.2,0c1.3-0.5,1.6,0,1.2,1.1
		C243.2,239.8,242.9,240.3,242.5,241.2z M195.9,283.7c0.8,0.1,1.1,0.1,1.3,0.2c2.9,0.3,3.4,0.9,2.5,3.6c-0.2,0.7,0.2,1,0.6,1.2
		c1.3,0.8,1.8,1.5,0.2,2.5c-0.5,0.3-0.9,0.8-0.7,1.5c0.2,0.6,0.8,0.8,1.4,0.8c2.6,0.3,5.1,1,7.5,1.8c1.4,0.4,2.7,1,4.3,0.4
		c1.1-0.4,2.5,0.1,3,1.3c1,2.6,4.4,4.4,2.4,7.9c0,0,0,0.2,0.1,0.2c2.5,1.9,2.4,5.1,4,7.4c0.9,1.3,0.6,2.1-0.1,3.1
		c-1.1,1.6-3,2.4-4.3,3.9c-0.5,0.5-1.3,1-0.8,1.9c1,1.7-0.3,2-1.4,2.5c-1.3,0.5-2.6,0.4-4,0.5c-2.2,0.1-2.9,1.3-2.7,3.3
		c0.3,2.7,1.8,4.6,4.3,5.7c1.9,0.9,4,1.2,6,1.5c5.1,0.8,10.2,1.5,15.3,2.5c3.2,0.6,3.8,1.7,3,4.7c-0.4,1.3-0.9,2.5-1.5,3.7
		c-0.9,1.6-0.3,1.8,1.2,1.8c2.5,0,5,0.1,7.5,0.1c2.2,0,4.2,0.4,6,1.6c2.2,1.4,4.4,2.8,6.4,4.5c1.3,1.1,2,0.6,3-0.3
		c2-2,3.2-4.4,3.7-7.2c0.5-2.8,1.5-3.5,4.2-2.8c4.5,1.1,9,1.8,13.6,2.4c3.7,0.5,7.5,1.5,11.2,0.2c2.7-1,5.4-1.6,8.3-1.9
		c4.6-0.4,7.4,3,6.1,7.4c-1.1,3.5-3.8,6-5.5,9.4c4.1,1.2,8,0.9,11.7-1c2.2-1.1,4.8-1.6,6.8-0.7c4,1.9,7.9,1.2,11.9,0.9
		c4.3-0.3,8.5-0.3,12.7-2.1c-3.5-4-1.4-9.8-4.5-13.9c-0.4-0.5-0.1-1.5-0.1-2.2c0.3-4.6,0.7-9.2,1-13.8c0.1-1.2,0.6-2,1.6-2.3
		c3.1-0.7,3.2-3.6,4.3-5.7c0.4-0.7-0.1-1.2-0.5-1.8c-2.1-2.3-3.9-4.9-6.2-6.9c-2.4-2.1-1.6-3.7-0.2-5.7c4.8-6.8,9.5-13.6,14.2-20.4
		c0.5-0.7,1.2-1.1,2-1.4c2.8-1.4,5.5-2.8,6.6-6.1c0.5-1.4,1.5-2.4,3.2-2.3c1.6,0.1,2.2-1.3,3-2.3c0.2-0.2,0.3-0.7,0.2-0.9
		c-0.2-0.5-0.7-0.4-1.1-0.2c-1.1,0.4-2.2,0.8-3.3,0c-1.2-0.8-2.4-0.6-3.6-0.2c-4.5,1.5-4.5,1.5-4.7-3.3c-0.1-2.7-0.6-3.3-3.1-2.3
		c-1.8,0.7-3.5,0.6-5.4,0.4c-2.6-0.3-5.1-1.4-7.7,0.7c-1.1,0.9-2.9,0.4-4.3-0.5c-1.4-1-2.7-1.9-4-3c-2.1-1.8-5-2.5-6.9-1
		c-2.8,2.2-5.6,1.5-8.5,1.7c-2.1,0.1-3.1-0.8-3.9-2.7c-0.8-1.9-1.8-3.6-4.3-4.4c-1.7-0.6-4.1,0.1-5.1-1.3c-1.9-2.8-4.6-2.9-7.4-3.1
		c-0.5,0-1-0.3-1.3-0.7c-0.5-0.7-1.4-0.7-1.8-0.3c-1.6,1.8-3.3,0.6-4.9,0.1c-9.6-3-18.9-6.6-29.1-7.7c-4.7-0.5-9.3-1.4-13.9-2.1
		c-0.7-0.1-2.2-0.5-2,0.5c0.3,1.5-0.7,2.6-0.6,3.8c0,1.5,0.5,3-1.4,3.3c-1.4,0.2-2.5,1.8-3.6,1.5c-2.4-0.8-4.3,0.9-6.5,0.8
		c-2.5-0.1-5.3,1.9-7.4-1.1c-0.4-0.5-1.2-0.5-1.9-0.5c-0.5,0-0.9,0-1.4-0.5c-3.2-3.5-3.9-3.6-8.1-1.3c-0.8,0.5-2.4,0.7-2.1,1.7
		c0.4,1.5-0.7,2.4-0.8,3.7c-0.1,0.9-1.2,2-1.9,1.4c-2.8-2.5-3.4,1-5,1.3c3.2,0.7,3.5,1.7,1.6,4.1c-1.1,1.5-1.4,3.3-1.8,5.2
		c2.5-0.3,3.5,1.1,3.4,3c-0.1,1.4-0.8,2.9-2.4,3.5c-0.8,0.3-1.9,0.4-2.2,1.4C200.6,277.8,198.6,280.7,195.9,283.7z M471.8,286
		c0.4,0.9,0.8,1.5,1,2.2c0.3,1.1,0.2,2.2-1,2.8c-1.5,0.7-3.3,0.9-4.6,0.1c-1.3-0.7-0.3-2.3,0-3.5c0.2-0.7,0.4-1.5,0.6-2.2
		c0.2-0.7,0-1.3-0.7-1.7c-4.5-2.4-8.1-6.2-13.3-7.4c-1-0.2-1.1-0.8-1.3-1.6c-0.1-0.6-0.2-1.3-0.6-1.6c-2.9-2.2-6.2-3.8-9.7-3
		c-2.9,0.7-4.8,0.1-6.6-1.9c-1.5-1.6-3.2-2-5.1-0.8c-1.7,1-3.3,0.7-5.1,0.2c-4.7-1.3-9.3-3-14.3-1.8c-1.4,0.3-2.8,0.3-4.2,0.2
		c-4-0.5-8.1-0.5-11.8,1.4c-2.1,1.1-2.7-0.1-2.9-1.4c-0.2-1.8-1.3-2-2.5-2.1c-3.2-0.1-6.4,0.1-9.5,0c-2.4-0.1-3.8,0.8-4.3,3.2
		c-0.2,1-0.4,2-1.4,2.6c-1.7,1-2.6,2.6-3.7,4c-1.1,1.5-2.2,2.7-4.2,2.8c-1.1,0-1.6,0.8-2,1.7c-1,2.4-2.6,4.1-4.9,5.4
		c-1.2,0.7-2.8,0.9-3.6,2.1c-4.9,7-9.8,14-14.7,21c-0.8,1.1-0.9,2,0.2,3.1c2.3,2.4,4.4,5,6.6,7.5c0.5,0.6,1.5,1.4,1,2.1
		c-1.4,2.3-1.2,5.8-4.6,6.8c-1.3,0.4-1.5,1.4-1.6,2.6c-0.3,3.7-0.5,7.4-0.8,11c-0.1,1.5-0.5,3.3,0.1,4.5c1.5,3,2.3,5.8,2.2,9.2
		c-0.1,1.5,1,4.1,3.3,4c2.2,0,4.5-0.4,6.6-1.1c4.3-1.6,8.8-2.7,13-4.4c6.4-2.6,13.1-4.5,18.8-8.6c3.7-2.7,10.5-1.6,13.8,1.6
		c1.9,1.8,2.3,7.4,0.1,8.7c-2.5,1.5-2,3.2-1.4,5.2c0.4,1.3,0.2,2.7,0.3,4c0.2,2.8,0.7,5.5,2.8,7.5c0.8,0.8,1.6,1.5,2.8,0.7
		c4.6-2.6,9.7-3.7,14.5-5.5c2.8-1,5.5-2.3,8-4.2c22-17.2,44-34.4,66-51.5c5.1-3.9,9.7-8.2,12.6-14.1c0.3-0.7,0.7-1.8,1.6-1.8
		c3.1,0,5.5-2.1,8.3-2.7c2.2-0.5,0.8-2,1.5-2.9c0.6-0.7-0.2-1.2-0.9-1.4c-2.1-0.7-3.4-2.4-5-3.7c-4.5-3.6-8.7-7.6-14.3-9.4
		c-6.2-2-10.5-6.8-15.6-10.4c-2.7-2-4.9-4.7-8.3-5.8c-0.8-0.3-1.5-1-2.2,0c-0.8,1.1,0.3,1.9,1,2.2c4.9,1.7,7,6.8,11.4,9.1
		c1.2,0.6,3.4,1.8,2.7,3.4c-0.7,1.6-2.8,0.7-4.3,0.6c-1.4-0.1-3.4-0.1-2.9,2.2c0.6,2.5-0.1,4.4-1.9,6.1c-0.5,0.5-1.1,1.1-1.2,1.9
		C475.1,285.1,474.2,286.4,471.8,286z M172.2,243.7c-1.3,0-2.2,0-3.1,0c-28.1,0.1-56.2,0.2-84.2,0.1c-2.9,0-4.7,1.1-6.1,3.5
		c-14,24.5-28.1,48.9-42.2,73.4c-1.7,3-1,5.7,2.1,7.3c1.2,0.6,1.6,1.3,1.7,2.5c0.3,3.8,0.6,7.7,1,11.5c0.1,1,0.1,2.2,1.4,2.7
		c2.8,1,6.1,0.1,8.1-2.3c1.2-1.5,2.3-3.6,4.3-3.6c3.5-0.1,6-1.9,8.7-3.5c1.4-0.9,3-1.5,4.4-0.2c3.6,3.2,7.4,2.8,11.4,1.2
		c0.8-0.3,1.6-0.4,2.4-0.5c1.1-0.2,1.8,0.2,2.2,1.4c1.5,4.2,4.1,7.6,7.5,10.5c3.5,3,6.6,6.6,11.8,6.8c1.2,0,2.3,0.9,2.2,2.5
		c0,1.5,1.1,2.5,2.1,3.3c1.1,1,2.7,0.6,4.1,0.2c1.2-0.3,0.7-1.5,0.8-2.4c0.2-3.2,2.8-6.4,5.9-7.2c1.7-0.4,3.6-0.6,5-1.4
		c2.7-1.5,5.2-3.1,8.4-2.7c0.4,0,0.9-0.2,1.1-0.4c1.1-1.3,2.6-1.4,4.1-1.6c3.5-0.6,6.8-2.1,10.5-1.1c1.2,0.3,1.9-0.4,1.3-1.8
		c-1-2.2-0.8-4.3-0.2-6.6c0.7-2.8,0-3.8-2.8-4.6c-1-0.3-2-0.2-3-0.2c-4,0.3-7.6-2.2-8.3-6.2c-0.4-2.2-1.4-3.8-2.7-5.5
		c-1.3-1.6-2-3.4-1.2-5.6c1.1-3.1,1.7-6.4,2.9-9.5c0.4-1.1,0.9-1.7,1.9-2.3c1.6-0.9,3.4-1.3,4.9-2.2c3.6-2.1,6.5-5.1,8.4-9
		c2.6-5.3,5.2-10.7,7.9-16C161.8,264.4,166.9,254.3,172.2,243.7z M213.7,392.6c-0.2-1.8-1.1-3-2.4-4c-1.3-1.1-3.6-2.2-3.2-3.8
		c0.7-2.9-1-3.6-2.8-4.8c-2.8-1.9-6.2-3.2-8.5-5.8c-2.8-3.3-5.3-6.9-8-10.3c-0.6-0.8-0.9-1.6-0.8-2.5c0.2-3.8,0.5-7.7,0.6-11.5
		c0.1-1.3,0.4-1.8,1.8-1.4c2.2,0.7,4.4,1.1,6.6,1.7c10,2.8,20.1,4.3,30.5,3.8c0.7,0,1.6,0.2,2.1-0.5c2.6-3.7,5.8-7,7.2-11.4
		c0.7-2.4,0.2-3.3-2.3-3.7c-3.1-0.5-6.3-0.9-9.4-1.5c-4-0.7-8.2-0.8-12-2.5c-3.4-1.5-5.4-4.9-4.8-8.3c0.6-3.5,3.7-2.8,6-3.2
		c1.3-0.2,2.3-0.2,1.6-2c-0.3-0.8,0.5-1.4,1-1.9c1.2-1,2.5-2,3.6-3.1c0.6-0.5,1.6-1.3,1.1-2c-1.6-2.5-1.4-6-4.2-7.8
		c-0.9-0.6-0.7-1.2-0.3-1.9c1.2-2.1,0.3-3.5-1.4-4.7c-1.5-1-2.4-3.4-4.8-1.9c0,0-0.2,0-0.2-0.1c-3.3-1.6-6.8-2.2-10.4-2.9
		c-1.2-0.2-2.2-1.1-1.8-2.3c0.5-1.5,1.4-2.9-0.4-4.1c-0.3-0.2-0.2-0.8,0.1-1.2c2-2.1-0.3-1.8-1.2-2c-2.7-0.4-2.9-0.7-1.3-3
		c1.3-1.9,3.2-3.5,3.8-5.9c0.5-2.1,1.4-3.9,3.8-4.5c1.1-0.3,1.6-1.5,1.7-2.6c0-0.7-0.4-1.5-1.1-1.5c-3.3,0-2.2-2-1.8-3.7
		c0.4-1.7,1-3.2,2.3-4.4c-1.6-0.3-2.7-1.3-3-2.7c-0.3-1.6,1.5-1.2,2.3-1.8c0.2-0.2,0.5-0.4,0.8-0.6c1.3-1.1,2.6-1.9,4.1,0.1
		c0.1-0.6,0.1-1,0.3-1.2c0.8-1.7-0.1-4.2,2.7-5.1c1.9-0.6,3.5-2.1,5.6-2.1c1.7,0,3.3,1.5,5.3,0.3c0.7-0.4,1.5,0.8,1.3,2.1
		c-0.2,1.1,3.4,3.6,4.2,2.9c1-0.8,1.9-0.8,3.1-0.9c1.2-0.1,2.7,0.7,3.5-0.1c1.5-1.5,3.5-0.7,5.3-1.5c1.7-0.7,2.4-0.7,1.9-2.6
		c-0.1-0.3,0.4-0.7,0.6-1.1c0.3-0.6,0.6-1.2,0.1-1.9c-0.5-0.7-1.3-0.8-2-0.5c-2.2,0.8-4.4,0.8-6.7,0.8c-19.2,0-38.4,0.1-57.6,0
		c-2,0-2.9,0.6-3.8,2.4c-7.4,15.1-15,30.1-22.4,45.3c-1,2.1-3.4,3.4-3.5,6.1c-2.8,0.4-4.4,3.1-7.2,3.9c-1.9,0.5-4.2,1.4-4.8,4.3
		c-0.5,2.4-1.2,4.8-2.1,7.1c-1,2.7-0.5,4.5,1.2,6.4c0.9,1,2.1,1.9,2.1,3.3c0,2.3,1.1,3.8,2.4,5.6c1.8,2.3,3.8,1.3,5.9,1.3
		c4.8-0.1,6.9,2.4,5.8,7c-0.4,1.8-0.4,3.4,0.3,5.1c1,2.9,0.4,4-2.6,3.5c-3.8-0.6-7.1,0.8-10.6,1.2c-2.2,0.3-3.4,1.1-3.5,3.4
		c-0.1,1.9-1,4.2,0.4,5.6c1.8,1.7,3.2,3.9,5.2,5.3c0.6,0.5,1.1,0.9,1.3,1.7c0.5,2,1.5,3.8,2.7,5.6c1.5,2.4,0.9,4.1-1.9,4.9
		c-2,0.6-3.2,3.1-1.9,4c2.6,1.7,4.3,3.9,5.2,6.8c0.2,0.6,0.9,1,1.4,1.4c1.2,0.9,1.9,2,1.1,3.4c-0.8,1.6,0,2.3,1.1,3.3
		c1.5,1.3,3.7,1.7,4.3,4c0.4,1.7,1.6,2.5,3.4,2.9c3,0.7,3.3,1.7,1.5,4.1c-1,1.3-1.1,2.4-0.1,3.7c1.4-1,0.8-3.5,3.4-3
		c2.7,0.5,4.5-0.8,5.5-3.5c0.6-1.7,1.2-3.5,1.9-5.2c0.9-2.3,6-5.6,8.4-5.1c2.2,0.4,4.3,0.2,6.5,0.2c3.9-0.1,7.8-1.6,11.6,0.3
		c1.9,0.9,3.9,1,5.9,0.9c2.8-0.2,5.5,0.2,8.1,1.2C210.1,392.3,211.8,392.8,213.7,392.6z M223.6,466.2c-0.3-2.3-0.5-4.6-0.8-6.9
		c-0.1-1.2-0.6-1.6-1.9-1.6c-1.9-0.1-3.2-1.3-4-3c-1.5-3.4-1.5-3.4-4.9-2.1c-0.6,0.2-1.2,0.5-1.8,0.8c-1.6,0.8-2.8,0.8-3.4-1.2
		c-0.1-0.5-0.5-0.8-0.8-1.2c-1.5,1.5-4.2,0.5-5.4,2.6c-1,1.7-2.5,2.9-3.8,4.3c-1.8,1.8-2.9,1.1-3.9-0.6c-0.6-1-1.3-2-1.7-3.1
		c-0.7-1.9-2.1-3.2-3.5-4.5c-1.2-1.1-2-1-3.2,0c-2.5,2-4.8,4.2-5.9,7.3c-0.4,1.3-1.2,2.6-1.9,3.8c-0.3,0.6-0.9,1.1-1.6,0.9
		c-0.6-0.1-0.9-0.8-1-1.3c-0.1-0.6-0.1-1.2-0.1-1.8c-0.1-0.9-0.4-1.5-1.4-0.7c-1.5,1.1-2.9,0.6-4.1-0.5c-1.3-1.3-2.5-1.3-4-0.4
		c-1.3,0.8-2.9,1.2-4.2,0.1c-1.1-0.9-1.5-0.5-2.2,0.6c-2.4,4.1-3.4,8.4-3.7,13.1c-0.2,2.9-2.1,5.3-4,5.2c-4.5,0-9-0.5-13.5-0.9
		c-1.3-0.1-1.8-0.6-1.6-1.9c0.1-0.7,0.9-1.6-0.1-2c-0.8-0.3-1.1,0.8-1.7,1.3c-1.7,1.6-5.4,1.5-5.8-0.5c-0.5-2.3-2.2-4.6-0.7-7.1
		c0.5-0.8,0.2-1.4-0.3-2.1c-0.3-0.5-0.8-0.5-1.3-0.4c-3.8,0.8-5.8,4.7-4.3,8.3c0.7,1.6,0.4,2.5-1,3.3c-1.5,0.8-2.1,0.1-2.6-1.2
		c-0.1-0.4-0.4-0.7-0.9-0.7c-0.6,0.1-0.8,0.5-0.8,1.1c-0.1,1.7,0,3.3,0.2,5c0.4,3.8,0.9,7.3-1.6,11c-2.4,3.4-4.6,6.9-6.8,10.5
		c-1.3,2.1-0.7,4.3,1.6,5.3c7.3,3.2,14.5,6.5,21.8,9.7c1.3,0.6,2.6,1.2,4,1.4c7.6,1.4,15.1,3.2,22.7,4.1c10.8,1.2,21.5,1.4,32.3,0.9
		c8.9-0.4,17.7-2.9,26.8-1.2c1.6,0.3,1.8-0.6,1.7-1.9c0-4.4,0-8.9,0-13.3c0-1.6,0.4-3,2.1-3.2c1.8-0.2,2.5-1.3,3.2-2.7
		c0.3-0.6,0.6-1.4,1.2-1.6c3-1.3,2.2-2.6,0.4-4.5c-1.7-1.8-0.9-3.8,1.4-4c2.3-0.2,3.5-1.8,4.8-3.2c0.3-0.3,0.8-0.8,0.4-1.3
		c-0.4-0.5-0.9-0.7-1.6-0.4c-0.9,0.4-1.9,0.8-2.9,0.7c-1.4-0.1-3.1,0.1-3.8-1.3c-0.7-1.5-0.1-3.2,1-4.2c1.8-1.5,1.3-3,0.6-4.7
		C224,471.9,222.9,469.2,223.6,466.2z M34.2,324.8c-3.6,6.2-7,12.3-10.6,18.3c-2,3.4-1.9,6.3,0.6,9.4c4.7,5.9,9.2,11.9,13.8,17.9
		c0.4,0.6,1.1,1.1,1.1,1.9c0.1,3.1-3.9,8-7,8.5c-1.9,0.3-2.9,1.1-3.1,3.2c-0.3,2.4-0.2,4.7,0,7c0.3,3.7-0.5,7-3.2,9.7
		c-1.3,1.3-1.8,3-1.2,4.6c1.6,4.3,1.1,8.9,3,13.1c1.1,2.5,1,5.1-0.5,7.5c-1.7,2.7-2.8,5.7-3.8,8.7c-0.6,2.1-1.6,3.9-3.2,5.3
		c-1.1,0.9-0.8,1.4,0.2,2c2.1,1.4,4,3.1,6.1,4.4c1.6,0.9,3.6,1.2,5.1-0.2c1.6-1.5,3.4-1.7,5.3-1.2c1.1,0.3,2,0.1,2.7-0.7
		c1-1.2,2.2-1.7,3.7-2c1.1-0.2,1.6-0.6,1.2-1.9c-0.9-2.3-1.6-4.6-2.3-6.9c-0.5-1.5-1.6-2.2-3.2-2.3c-2.2-0.1-4.3-0.3-6.5-0.8
		c-2.6-0.5-2.9-1.5-1.2-3.5c3.6-4.7,7.8-8.2,14-9.3c4.7-0.8,9.2-3,14.2-1.8c1.8,0.4,3.7,0.3,5.5,0.5c1.2,0.1,2.6-0.2,3.2-1.2
		c1.4-2.2,3.5-3.9,4.7-6c3.2-5.3,5.5-11.2,6.9-17.3c0.3-1.3,0.8-2.1,1.9-2.7c4.5-2.5,6.3-6.5,6.3-11.5c0-0.9-0.3-1.8-1.1-2.5
		c-4.2-3.6-3.5-7.3-0.9-11.3c1.9-2.9,4.5-5,7-7.1c2.8-2.3,2.7-4.4-0.2-6.5c-4.1-3-7.4-6.9-9.4-11.6c-0.7-1.6-1.6-1.8-2.9-1.4
		c-1.1,0.3-2.3,0.6-3.4,1c-3,1.1-5.8,0.8-8.2-1.3c-1.9-1.6-3.7-1.4-5.7,0c-1.6,1.1-3.1,2.8-5.3,2.7c-2.8-0.1-4.8,1-6.1,3.3
		c-2.1,3.8-5.4,3.6-8.9,3.2c-1.8-0.2-2.7-1.2-2.9-3.2c-0.2-3.8-0.7-7.7-1-11.5c-0.1-0.8-0.1-1.7-0.8-2
		C36.3,328.5,35.6,326.5,34.2,324.8z M219.7,511.7c0,0.4,0,0.8,0,1.3c0.2,2.4-0.9,5.3,0.5,7.1c1.2,1.6,4.1,0.8,6.2,1.5
		c0.1,0,0.2,0.1,0.2,0.1c9.9,1.9,19.1,5.9,28.3,10c3.4,1.5,6.7,3,10.1,4.5c0.6,0.3,1.7,1.2,2-0.1c0.7-2.5,1.6-5.2,0-7.7
		c-0.7-1.1-1.1-2.2-1.4-3.5c-0.8-3.8-4-6.7-3.8-10.8c0-0.3-0.3-0.6-0.5-0.8c-1.1-1.5-1.9-3.2-0.4-4.7c1.5-1.4,3.3-1.6,5.3-0.3
		c2.6,1.8,5,3.7,8.4,4.2c3.8,0.6,4.1,0.8,5.8-2.8c1.2-2.4,2.6-4.3,5.5-4.4c0.7,0,1-0.5,1.4-0.9c4.4-4.3,2.5-9.7,2.4-14.7
		c0-0.3-0.4-0.7-0.7-1c-3.8-3.6-7.4-7.6-13-8.4c-0.6-0.1-1.2-0.5-1.8-0.8c-1.3-0.6-1.5-1.5-0.8-2.8c1-2,2-4.1,2.5-6.3
		c1.2-4.8,4.4-6.4,8.9-6.3c1,0,1.7-0.1,1.5-1.3c-0.1-0.4,0.1-0.8,0.5-1.1c3.7-2.9,3.7-6.1,0.2-9c-2.1-1.7-4.9-2.9-5.5-5.6
		c-0.6-2.6-1.9-2.3-3.6-1.9c-3.8,0.7-7.7,1.5-11.5,2.3c-1.5,0.3-3,0.3-4-1.3c-0.4-0.6-1-0.6-1.8-0.6c-2.3,0.1-3.5,1.8-5,3.1
		c-1,0.8-2.1,1.8-2.9-0.2c-1-2.3-2.6-2.6-3.9-0.5c-3.6,5.7-8,11.1-6.3,18.6c0.4,1.6-0.7,2.6-1.8,3.8c-2.1,2.2-5.2,2.4-7.2,4.3
		c-1.6,1.5-3.4,2.7-5.5,3.4c-1.7,0.6-2.7,1.9-3.3,3.6c-0.4,1-0.2,1.5,1,1.7c1.5,0.3,3,0.1,4.4-0.4c1.1-0.4,2.1,0,3,0.8
		c0.5,0.5,0.6,1,0.2,1.6c-1.3,1.8-2.7,3.7-4.9,4.5c-3.2,1.1-3.2,1.3-1,3.8c1.6,1.8,1.6,2.6-0.5,3.9c-1.2,0.8-2.1,1.7-2.5,3
		c-0.4,1.3-1.2,1.9-2.5,2c-1.7,0.1-2.1,1.2-2.1,2.8C219.8,507.3,219.7,509.5,219.7,511.7z M253.6,396.3c4.3,0,5.1-0.6,6.6-5.2
		c0.6-1.7,0.7-3.6,2.4-4.8c11.3-7.7,22.5-15.7,34-23.2c4.9-3.2,7.7-7.5,9.8-12.6c1-2.4-1-5.3-3.6-5.3c-2.8,0-5.5,0-8.1,1.3
		c-2.2,1.1-4.6,1.3-6.9,1c-6.2-0.7-12.4-1.3-18.5-2.9c-3.2-0.8-3.7-0.7-4.3,2.5c-0.5,3-2.2,5.2-4.2,7.2c-1.2,1.2-2.5,1.5-4.1,0.1
		c-4.4-3.8-9.1-6.9-15.4-5.7c-0.6,0.1-1.4,0.1-2-0.1c-3.6-0.9-6,0.4-7.7,3.7c-0.5,1.1-1.1,2.4-2.8,2.6c-6.8,0.5-13.5,0.4-20.2-0.9
		c-5.7-1.1-11.2-2.5-16.8-3.9c-1.9-0.5-2.4,0-2.4,1.8c0.1,2.5-0.1,5-0.4,7.5c-0.2,1.3-0.3,2.6,0.6,3.9c4.7,6.1,9,12.5,16.3,15.9
		c2,0.9,4.6,1.9,3.1,5.1c-0.1,0.2-0.1,0.6,0.1,0.7c2.8,2.5,4.8,5.6,7,8.6c1.5,2,4.8,1.6,7.3,2.1c3.5,0.8,7.2-0.3,10.5-2.2
		c0.8-0.5,1.7-0.8,2.6-0.1c2.7,2,3.4,1.9,6-0.5c1.5-1.4,4-1.4,4.7,0.3C248.6,396,250.8,396.1,253.6,396.3z M402.5,372.6
		c-3.3-2.3-4.6-5.4-4.8-9c-0.1-2.4-0.3-4.8-0.9-7.2c-0.3-1.2-0.1-2.1,1.3-2.9c2.4-1.2,2.8-6.1,0.8-7.8c-3-2.6-8.8-3.7-12-1.4
		c-5.2,3.8-11.2,5.7-17,7.9c-6.5,2.5-13.1,5.1-20,6.4c-6.6,1.1-13.1,2.3-19.8,2.8c-3.2,0.3-6.1,0.4-9-1.1c-1.3-0.7-2.6-0.6-3.9-0.5
		c-3.4,0.3-3.9,1.3-2,4c0.6,0.9,1.2,1.8,1.8,2.7c1.8,2.7,3.7,5.4,5.4,8.1c1.7,2.6,1.2,3.6-1.8,3.6c-1.4,0-2.7,0-4.5,0
		c1.8,2.5,3.3,4.5,4.6,6.5c1.3,1.9,2.5,3.8,5.1,4.1c0.9,0.1,1.3,0.9,1.3,1.9c0.1,2.4-0.9,3.4-3.4,3.6c-4.9,0.4-6.8,4.3-4.3,8.3
		c0.2,0.4,0.5,0.7,0.6,1.1c1.2,4.5,4.5,5.5,8.6,5.4c0.6,0,1.2,0.1,1.5-0.5c1.2-2.4,3.3-4.6,2.6-7.6c-0.4-1.6,0.2-2.7,1.3-3.8
		c4.2-4.1,4.1-4.1,9.2-1.4c0.4,0.2,0.9,0.4,1.3,0.7c6.5,3.3,12.7,3.7,18.3-2c0.4-0.4,0.9-0.7,1.4-1.1c2.1-1.9,4.8-2.7,7.2-1.2
		c3,1.8,5.5,1,8.3-0.1c1.4-0.5,2.8-1.1,4.1-0.1c2.4,2,3.8,0.7,5.4-1.2c3.4-4,6.5-3.9,9.1,0.2c0,0.1,0.3,0,0.4,0.1
		c0.1-0.2,0.2-0.3,0.3-0.4c1.4-2.8,2.7-5.6-0.6-8c-0.6-0.4-0.4-1-0.2-1.6C399.1,378.2,399.9,375,402.5,372.6z M105.8,503
		c-0.8-2.3,0.6-3.9,1.8-5.7c1.2-1.7,2.3-3.5,3.5-5.2c3.4-4.6,4.9-9.5,3.4-15.2c-0.3-1.2-0.3-2.5-0.2-3.7c0.1-1.2,0.7-2.1,1.9-2.4
		c1.1-0.3,1.6,0.6,2.2,1.3c0.3,0.4,0.5,1.2,1.3,0.7c0.5-0.3,0.5-0.8,0.3-1.3c-2.4-6.3,0.6-7.1,4.4-9.8c0.7-0.5,1.6-0.9,2.5-0.2
		c0.9,0.8,2.1,2.1,1.5,2.9c-1.5,2.1,0.3,4-0.1,6c-0.3,1.7,2.1,2.8,3.7,1.8c0.6-0.3,1-0.9,1.5-1.3c0.6-0.5,0.9-1.6,2-1.1
		c1,0.4,1.6,1.3,1.3,2.4c-0.4,1.6,0.4,1.9,1.8,2c3.2,0.1,6.4,0.2,9.5,0.8c2.6,0.4,3.9-0.5,4.8-2.7c0.5-1.1,0.5-2.3,0.5-3.4
		c0-2.9,0.6-5.6,2-8.2c1.6-3,3.3-6.1,4-9.4c0.6-2.7,1.6-5.6-1.1-7.9c-1.9-1.6-4-3.1-6-4.5c-1.9-1.3-3.9-1.4-5.9-0.4
		c-0.9,0.4-1.8,0.9-2.7,1.2c-3.1,1-3.9,0.2-3.8-3c0.2-3.7-4.6-8.2-8.2-7.6c-1.3,0.2-2.4,0.2-3.3-1c-0.8-1-1.8-1.8-3.2-1.4
		c-1.6,0.4-1.3,1.8-1.4,3.1c-0.2,3.3-0.8,3.6-4,3c-1.2-0.2-2.5-0.3-3.7-0.6c-3.3-0.8-4-2-2.3-4.9c1.7-3,3-5.9,1-9.4
		c-0.7-1.2-0.9-1.6-2.3-0.7c-3.4,2.3-6.4,4.9-9.1,7.9c-0.9,1-1.5,2.1-1.3,3.4c0.4,2.5-0.3,4.7-1.7,6.7c-3,4.6-3.6,9.8-4,15
		c-0.1,1,0,1.9,0.5,2.7c1.6,2.2,1.6,4.6,1.3,7.2c-0.3,2-0.2,4-0.2,6c0,1.1-0.1,2.2-0.8,3.1c-1.6,2.5-2.5,5.3-2.7,8.3
		c-0.3,4.1-0.7,8.2-3.8,11.3c-0.5,0.5-0.5,1.1-0.5,1.9c0.1,3.4,1.3,5.8,4.6,7.2c2.8,1.2,5.4,3,8.1,4.5
		C103.8,502.6,104.5,503.3,105.8,503z M224.9,466.8c-0.8,3.7,1.2,6.2,2,9.1c0.2,0.8,0.8,0.8,1.4,0.5c0.9-0.4,2-0.7,2.7-1.3
		c1.8-1.8,4-2.9,6.3-3.9c3.5-1.4,4.3-3.3,3.8-7c-0.2-1.5-0.4-3,0-4.5c1.4-4.8,4.2-8.9,7-13c1.6-2.3,4-2,5.5,0.5
		c0.4,0.7,0.8,0.8,1.4,0.3c1.6-1.5,3-3.2,5.4-3.3c0.2,0,0.6-0.5,0.6-0.7c-0.1-2.4,1.3-4.5,1.5-6.7c0.2-4.1,2.1-6.7,5.3-8.8
		c0.9-0.5,1.6-1.1,2-2.2c0.2-0.7,0.7-1.3-0.1-2c-1.4-1.3-2.7-2.7-4.6-3.3c-2-0.6-4-1.4-5.9-2.2c-2.3-1-3.8-2.9-5.1-5
		c-1-1.7,0.6-2.7,0.9-4.1c0.7-2.7-0.2-5.4-1.6-7.6c-0.9-1.5-2.8-0.5-4.2-0.3c-1.6,0.3-3,0.6-4.1-0.9c-1.2-1.5,0-2.6,0.6-3.9
		c0.5-1,1.6-2.2,0.3-3.1c-1.2-0.9-2.2,0.1-3.1,1.2c-1.1,1.5-4.7,2.2-5.9,0.9c-1.3-1.4-2.2-1-3.5-0.3c-1,0.6-2.1,0.9-3.3,1.3
		c-2.6,0.8-5.4,1.2-7.9,0.3c-1.9-0.7-4-0.4-5.7-1.5c-0.5-0.3-1,0.1-1.1,0.6c-0.9,3.5-4.3,4.2-6.8,5.3c-1.9,0.8-2.9,1.7-3.4,3.4
		c-0.4,1.7-1.1,3.2-2,4.6c-0.4,0.5-0.8,1.1-0.1,1.7c1.8,1.6,3.5,3.4,6.1,2.7c1.5-0.4,2.4,0.3,3.3,1.3c0.8,0.9,1.5,2,2.4,2.9
		c2.4,2.8,2.7,6.9,5.6,9.3c0.6,0.5,0.1,1.4,0.1,2.2c0,3-2.1,5.4-2.2,8.3c-0.2,4.1-0.7,8.1-1.6,12.2c-0.7,3.1,1.8,6.1,5.1,6.6
		c1.3,0.2,1.7,1.1,1.8,2.1C224.3,461.4,224.6,464.3,224.9,466.8z M316.9,398.4c-3.2-0.9-5,1-6.4,3.1c-2.4,3.7-5.8,6-9.9,7.2
		c-1,0.3-2.1,0.5-3.2,0.6c-2.9,0.2-5.1,1.1-6.2,4.1c-0.5,1.3-1.3,2.5-2,3.8c-0.6,1.1-1.6,1.7-2.7,1c-2.2-1.3-4.3-0.6-6.5,0.2
		c-2.1,0.8-4.7,1-5.2,4c-0.1,0.4-0.7,0.8-1.1,1c-1.6,0.6-2.5,1.8-3,3.4c-0.4,1.2-1.4,1.8-2.3,2.5c-1.3,1-3.3,1.8-3.6,3.4
		c-0.7,3.6-2.3,7-2.4,10.6c-0.1,2,1.6,3.3,3.6,3c4.5-0.8,9-1.7,13.6-2.6c1.6-0.3,2.6-0.1,2.7,1.8c0.1,1.5,1,2.6,2.1,3.6
		c1.4,1.2,2.8,2.4,4.2,3.5c3.8,3.1,9.2,2.5,12.1-1.4c1.9-2.4,4-2.7,6.5-0.9c1.2,0.9,2.5,1.9,4,3.1c0.2-2.4,0.4-4.4,2.3-5.7
		c2-1.4,4-2.8,6-4.1c2.1-1.2,4.2-1.7,6,0.7c0.6,0.8,1.2,1.5,2.5,0.8c2.4-1.3,5-2.4,7.4-3.7c1.8-1,1.9-3.5,0-4.3
		c-1.2-0.5-1.2-1.1-1-2.1c0.9-4.2,2.8-8.1,4-12.1c0.3-0.9,0.8-1.7,0.3-2.6c-0.9-1.6-0.7-3.3-0.4-5.1c0.5-2.7-0.8-4.7-2.9-4.4
		c-3.7,0.4-7.3-0.5-11-0.4c-1.3,0-2.2-0.4-2.9-1.5c-1.4-2.3-2.8-4.6-4.1-6.9C316.8,400.7,315.9,399.7,316.9,398.4z M107.8,419.2
		c-1.9-1.2-3.1-0.5-4.3,0.3c-1.3,0.9-2.6,1.8-4.2,1.1c-1.7-0.8-2.6,0-3.4,1.4c-0.6,1-1.3,2.4-2.6,2.1c-1.3-0.3-1.9,0-2.7,0.9
		c-1.5,1.7-3.3,0.6-4.9,0c-1.6-0.6-0.9-2-0.6-3.1c0.4-1.5,1.1-3,1.7-4.5c0.2-0.5,0.4-1-0.1-1.4c-0.5-0.4-1,0-1.4,0.2
		c-0.4,0.2-0.6,0.5-1,0.8c-4.1,2.9-8,5.9-9.5,11.2c-0.6,2.1-2.1,3.9-2.8,6.1c-1.2,3.4-3.9,6-5.8,9c-0.2,0.4-1,0.5-1.6,0.6
		c-4.7,1.4-9.3,1.9-13.8-0.9c-1-0.6-2.4-1.7-3.4-1.1c-2.3,1.5-5.5,1-7.4,3.5c-0.8,1.1-2.2,1.1-3.5,0.7c-1.5-0.5-2.7-0.3-3.9,0.8
		c-0.8,0.7-1.8,1.2-2.9,1.8c0.8,0.6,1.7,1.3,2.5,1.9c4.1,3.1,8.4,5.8,12.2,9.3c9.1,8.6,18.5,16.7,28.8,23.8
		c5.2,3.6,10.6,7,16.4,10.3c-2-4,0.4-6.7,2.3-9.5c1-1.5,1-3.3,1-5.1c0.1-3.4,0.8-6.7,2.4-9.7c0.9-1.7,1.3-3.4,1.3-5.2
		c0-1.2,0.2-2.3,0.3-3.5c0.1-2.7,0.7-5.5-1.2-8c-0.5-0.6-0.8-1.6-0.7-2.4c0.7-4.4,0.3-9,2.6-13.1c1.7-3,3.6-6,3.1-9.8
		c-0.2-1.3,0.6-2.6,1.6-3.6C104.2,422.6,105.9,421,107.8,419.2z M251.1,399.7c1.2,0,2-0.1,2.7,0.4c1.6,1.1,3.5,8,2.3,9.6
		c-1.8,2.4-0.8,3.9,0.9,5.6c1.1,1.2,2.4,2,3.9,2.5c3.2,1.2,6.6,1.8,9,4.6c0.9,1,3.6,0.2,3.9-1.3c0.6-2.9,2.9-3,4.8-3.7
		c2.1-0.8,4.3-2.2,6.5-1.1c2.4,1.2,3.2,0.2,4-1.7c0.4-1,1.2-1.9,1.5-2.9c0.8-2.3,2.6-3.3,4.8-3.4c6.5-0.4,11.4-3.2,15-8.6
		c1.3-1.9,3.2-3,5.6-2.6c1.1,0.2,2-0.1,2.6-1.1c1.3-2.1,3.2-3.1,5.7-2.9c1,0.1,1.5-0.4,1.6-1.5c0.1-1-0.2-1.5-1.3-1.6
		c-1.1-0.1-2.1-0.6-2.8-1.5c-2.1-2.9-4.3-5.8-6.3-8.8c-0.9-1.3-0.5-2.2,1.2-2.2c1.2,0,2.3,0,3.5-0.1c1.6-0.1,2-0.8,1-2.2
		c-2.8-4-5.5-8-8.2-12.1c-0.7-1.1-1.5-1.3-2.7-0.9c-1.7,0.5-3.4,0.8-5.2,0.4c-3.3-0.8-6.1,0.1-8.9,2.1
		c-10.1,7.1-20.4,14.1-30.6,21.1c-2.3,1.5-3.9,3.3-4.3,6.1c-0.5,3.6-2.2,5.5-6.2,5.6c-2.4,0.1-4.6,0-6.8-0.9
		c-0.7-0.3-1.1-0.1-1.5,0.4c-0.5,0.8-1.2,1.5-0.9,2.5c0.2,0.8,1,0.9,1.6,0.8C248.9,400.1,250.2,399.8,251.1,399.7z M106.5,361.2
		c-0.5-1.4-1.9-2.1-1.9-3.4c-0.1-1.6-1.1-2.1-2.4-2.4c-1.6-0.4-3.3-0.8-4.9-1.2c-0.6-0.1-1.1-0.5-1.3,0.5c-0.3,1.7-1.7,2.6-3,3.6
		c-2.5,1.9-4.7,4-6.4,6.7c-2.1,3.3-2.6,6.2,1,9.3c1,0.8,1.3,1.9,1.4,3.1c0.3,5.5-2.1,9.6-6.6,12.6c-0.5,0.3-1.4,0.5-1.3,1
		c0.3,2.3-1.8,3.9-1.8,6.1c0,1.5-0.7,3-1.4,4.5c-2.1,4.5-4.5,8.8-7.7,12.7c-1.8,2.2-3.7,3.2-6.3,3c-2.4-0.2-4.8-0.4-7.2-0.7
		c-4.4-0.6-8.2,1.9-12.4,2.5c-5.5,0.8-8.7,4.5-12,8.4c-0.8,1-0.8,1.6,0.6,1.8c2.4,0.3,4.8,0.7,7.2,0.9c1.5,0.1,2.3,0.7,2.8,2.1
		c0.8,2.4,1.6,4.7,2.5,7.1c0.2,0.6,0.1,1.8,1.3,1.5c1.8-0.5,3.4,0.4,4.7,1.2c4.2,2.4,8.4,2.2,12.8,0.9c0.7-0.2,1.3-0.3,1.6-1
		c1.9-3.4,4.6-6.2,5.8-10.1c1.1-3.6,3.9-6.6,4.8-10.4c0.1-0.3,0.3-0.7,0.6-0.8c3-1.4,5.5-3.7,8.2-5.6c1.7-1.2,2.9-0.2,2.7,1.9
		c-0.1,1.5-1,2.8-1.5,4.2c-0.3,1-1.3,2.3,0,2.9c1.2,0.6,2.9,1.4,3.8-0.7c0.3-0.6,0.9-1.2,1.6-0.9c1.9,0.9,2.6-0.5,3.3-1.7
		c0.9-1.6,2.1-2.2,3.7-1.4c1.4,0.6,2.4,0.3,3.5-0.5c1.7-1.3,3.4-2.1,5.6-1.1c0.6,0.3,1.2,0,1.9-0.3c3.2-1.6,5.4-4.3,7.1-7.3
		c1.7-3,1.6-6.1-0.9-8.7c-1-1.1-1.3-2.2-1.5-3.5c-0.6-3.9-0.7-3.9-4.5-3.6c-2.4,0.2-5.7-2.9-5.1-5.1c0.4-1.7-0.2-2.5-1.2-3.4
		c-0.6-0.6-1.3-1.2-1.5-2c-1.5-5.6-3.3-11-4.1-16.8c-0.2-1.6,0.4-2.5,1.9-3C102.1,363.1,104.2,362.2,106.5,361.2z M175.2,460.8
		c0.7-1.1,1-1.4,1.2-1.9c1.6-4.5,4.3-8.3,8.3-11c0.5-0.3,0.8-0.8,0.9-1.4c0.6-7.1,5.3-11.7,10.2-16.1c3.5-3.1,5.1-6.7,3.8-11.2
		c-0.8-2.9-0.7-5.5,1-8.1c1.7-2.5,3.4-5.1,4.1-8.3c0.3-1.3,1.2-2.6,2.4-2.7c2.3,0,3.6-2,5.6-2.6c1.1-0.4,1.7-1.3,1.7-2.5
		c-0.1-1.4-1.3-1-2.1-1.3c-6.8-2.8-14.4-1.6-21.3-3.8c-0.9-0.3-2-0.2-3,0c-3.4,0.8-6.9,0.1-10.2,0.5c-5.9,0.7-8.3,1.3-9.6,6.7
		c-0.3,1-0.7,2-1,3.1c-0.4,1.6-1.4,2.7-2.9,3.2c-1.5,0.5-1.7,1.3-1.3,2.8c1.7,6.2,2.3,12.4-0.8,18.4c-1.4,2.8-2.3,5.6-2.3,8.8
		c0,2.3-0.5,4.6-0.8,7c-0.1,0.6-0.2,1.3,0.2,1.7c3.3,3.1,1.7,6.7,1.1,10.3c-0.2,1-1.4,2,0,3.1c1.3,1.1,2.7,1,3.9,0.2
		c2-1.4,3.5-1,5.1,0.6c0.7,0.7,1.4,1.3,2.6,0.5c2.4-1.6,3-1.2,3.2,1.7C175.1,459.1,175.1,459.6,175.2,460.8z M148.7,393.5
		c-1-1.4-3.7-1.9-3.2-3.6c0.8-2.8-0.1-4.3-2.1-5.9c-0.4-0.3-0.6-1-0.7-1.6c-0.3-2-1.7-3.2-3.2-4.2c-1.3-0.8-2.1-1.7-1.7-3.5
		c0.4-1.8,1.4-2.8,3.1-3.2c1.8-0.5,2.3-1.6,1.1-3.1c-0.3-0.4-0.9-0.7-1-1.3c-0.7-4.4-3.8-7.3-6.9-10c-2-1.8-2.4-3.7-2.1-6
		c0.4-2.9,0.1-3.3-2.7-2.7c-1.2,0.2-2.5,0.7-3.4,1.4c-1.6,1.2-3.4,1.7-5.3,2.1c-4.7,1-6.3,2.8-6.7,7.6c-0.2,1.7-0.9,2.5-2.5,2.5
		c-3.8-0.1-7.1,1.7-10.6,2.9c-1.6,0.5-1.9,1.4-1.5,2.8c1.1,4.2,2.2,8.4,3.1,12.7c0.5,2.1,1.1,4,3,5.3c1,0.7,0.8,1.7,0.8,2.7
		c-0.1,3.2,1.7,4.9,4.9,4.6c3.3-0.3,4.1,0,4.4,3.1c0.2,2.4,1.4,4.1,2.4,6.1c1.1,2.2,2,1.9,3.6,0.5c1.7-1.6,3.2-3.8,5.8-3.7
		c3.6,0.2,7.4-0.2,10.7,0.3c4.3,0.6,6.9-0.2,8.9-3.8C147.3,394.7,148.1,394.1,148.7,393.5z M157.8,441.2c0.3-3.1,0.5-5.8,0.8-8.4
		c0.2-1.6-0.3-3.4,0.6-4.9c4.2-6.8,4.5-13.9,2.4-21.4c-0.3-0.9-0.3-1.9-1.4-2.1c-1.2-0.2-0.9,1-1.2,1.5c-0.5,0.9-1.2,1.4-2.2,1.2
		c-1.1-0.2-1.3-1.1-1.4-2.1c-0.1-1.3-0.1-2.5,1-3.5c1.1-1,0.7-1.9-0.7-2c-2.6-0.3-3.9-2-4.7-4.2c-0.5-1.5-1.3-1.3-2.1-0.3
		c-0.9,1.1-1.7,2.2-2.6,3.4c-2.1,2.6-3.8,3.2-7,2.2c-1.3-0.4-2.6-0.6-3.9,0c-1.5,0.8-2.8,0.6-4.3,0.1c-4.3-1.2-10.6,2.3-11.9,6.7
		c-0.7,2.3-1.6,4.4-3.2,6.2c-1.1,1.1-1,2.1-0.4,3.6c1,2.4,2.3,4.7,0.8,7.6c-3.1,5.9-3,5.8,3.6,6.8c2.1,0.3,2.6-0.4,2.4-2.2
		c-0.1-1.7,0.3-2.9,2-3.7c1.7-0.8,3.3-0.1,4.3,1c1.1,1.2,2.3,1.5,3.6,1.1c1.8-0.5,3,0,4.1,1.4c0.8,1,1.8,1.7,2.8,2.5
		c1.6,1.2,2.4,2.9,2,4.8c-0.4,2.4,0.8,2.3,2.4,1.9c0.7-0.2,1.4-0.6,2-1c2.6-1.5,5.1-1.2,7.5,0.5C154.6,438.8,156,439.9,157.8,441.2z
		 M186.8,446c-0.2,1,0,1.5,0.5,1.9c3.1,2,4.7,5.1,6.3,8.3c0.7,1.4,1.4,1.7,2.8,0.5c1.6-1.4,2.7-3.2,4.1-4.7c1-1.1,2.8-0.5,3.6-1.3
		c2.1-2.1,2.9-1,3.7,1c0.3,0.7,0.7,1,1.6,0.8c5-0.9,7-3.2,7.4-8.3c0.1-0.8,0-1.5,0.2-2.3c0.5-2.7,0-5.6,1.2-8.2
		c1.4-3.1,2.4-6.1-0.9-8.7c-0.7-0.5-0.9-1.4-1.1-2.2c-0.6-3-2.9-5-4.7-7.3c-0.4-0.5-0.9-0.8-1.5-0.7c-2.8,0.6-4.9-0.5-6.8-2.4
		c-1-1-1.4-0.5-2,0.4c-1.6,2.3-0.8,4.7-0.2,7c0.6,2.3,0.8,4.4-0.6,6.7c-1.3,2.1-2.6,3.9-4.5,5.5c-2.2,1.8-4.1,4-5.7,6.3
		C188.4,440.7,186.9,443.2,186.8,446z M370.4,271.8c0.1,0,0.1-0.1,0.2-0.1c0-0.1-0.1-0.2-0.1-0.2c-0.1,0-0.1,0.1-0.2,0.1
		C370.3,271.7,370.3,271.7,370.4,271.8z"/>
	<path class="st1" d="M242.5,241.2c0.4-0.9,0.7-1.4,0.8-1.9c0.3-1.1,0-1.6-1.2-1.1c-0.4,0.1-0.9,0.7-1.2,0c-0.3-0.6,0-1.1,0.5-1.5
		c1.1-1,3-1.7,1-3.6c-0.3-0.3,0.2-0.7,0.6-0.8c2.6-1.1,1.2-2.1-0.1-3.1c-0.3-0.3-0.7-0.4-1.1-0.6c-2.7-1.6-2.8-3.8,0-5.5
		c1.6-1,2.3-1.5,0-2.4c-0.7-0.3-1.4-0.8-1.1-1.7c0.3-0.9,1-0.5,1.7-0.4c3.9,0.7,0.4-1.8,1.3-2.7c0.7-0.4,2.2,0.5,2.4-1.2
		c0.3-2.4-2.2-0.8-2.8-2.2c1.4-0.7,2.9-1.4,3.9-2.8c1.2-1.7,0.7-3.3-0.5-4.7c1.2-0.7,2.7,1,3.4,0c0.7-1-1-2-1.1-3.1
		c0-0.4-0.1-0.8-0.1-1.2c-0.1-2.1-0.1-3.6-3.3-2.9c-2.2,0.5-4.4-1.6-6.9-1.7c-0.6,0-0.4-1-0.5-1.5c-0.9-2.8-3.2-4-6-3
		c-1.3,0.5-1.7,0-1.8-1.1c-0.2-2.1-1.3-2.6-3.1-1.8c-2.4,1.1-4.7,0.2-7.1,0c2.1-3.2,1.9-3.7-1.9-4.9c-0.5-0.2-1-0.2-0.8-0.9
		c0.6-1.8,0-3.8,0.9-5.6c0.4-0.7,0.7-1.9-0.3-2.2c-2-0.6-1.9-2.2-2.3-3.7c-1-4.3-4.1-7.4-6.3-11c-2.3-3.8-5-7.1-9.4-8.7
		c-1.2-0.4-2-1.2-1.8-2.9c0.2-1.9-1.2-2.3-2.8-1.9c-0.5,0.1-1,0.6-1.6,0.4c-4.4-1.4-9.3-1.7-12.6-5.6c-1-1.1-2-2.2-3.5-2.7
		c0.3-1.2,2.2-2.1,0.8-3.4c-1.1-1-2.7-0.9-4.1-0.6c-1.8,0.4,0,2-0.9,3.5c-1.9-2.9-5.1-3.2-7.7-4.7c-0.6-0.3-1.1-0.8-1.2-1.5
		c-0.3-2.8-2.2-4.6-3.8-6.6c-1.1-1.3-2.1-2.6-2.4-4.3c-0.4-2.2-1.8-3.2-4-2.7c-1.7,0.4-2.9-0.2-4-1.4c-2.2-2.5-4.7-4.8-5.3-8.4
		c-0.2-1.3-1.1-2.2-2.3-2.4c-2.2-0.3-2.5-1.7-2.9-3.4c-1.2-5.3-2.9-6.4-8.3-5.7c-2.3,0.3-4.3,0.6-4.9-2.5c-0.3-1.4-2-1.6-3.3-1.9
		c-1.3-0.3-2.6-0.5-3.9-1.1c-0.6-0.3-1.3-0.5-1.1-1.4c0.2-0.8,0.9-0.6,1.5-0.6c8.3,0.1,16.6,0.2,24.9,0.2c9.2,0.1,18.4,0.1,27.7,0.2
		c1.8,0,1.8-0.9,1.8-2.2c0-6.5,0-12.9,0-19.4c0-16.2,0.1-32.4,0.2-48.5c0-2.9,0.5-3.5,3.4-3.8c0.7-0.1,1.3,0,2,0
		c20.9,0,41.7,0,62.6,0c48.2,0,96.4,0.1,144.6,0.2c4.2,0,8.4,0.2,12.6,0.1c1.6,0,2,0.5,2,2c0.2,14.5,0.5,29,0.7,43.5
		c0.2,16.4,0.5,32.8,0.5,49.3c0,16.2-1.6,32.3-2.6,48.4c-1.1,18.4-2.5,36.8-3.8,55.2c-0.9,14.4-2.7,28.7-4.1,43
		c-0.5,5.2-0.5,5.2-5.7,5.2c-2.4,0-4.9,0.1-7.3,0c-2.4-0.1-3.7,1.1-4.5,3.2c-1.5,3.8-6.1,5.9-9.9,4.4c-1.6-0.6-3,0-4.3,0.6
		c-1.4,0.7-2,0.6-2.2-1.2c-0.5-5.5-0.5-5.4-6.2-4.4c-2.6,0.5-5.1-0.5-7.7-0.7c-1-0.1-1.8-0.2-2.6,0.5c-1.7,1.7-3.4,1.2-5.2,0.1
		c-2.1-1.3-3.7-3.1-6-4.1c-2.4-1.1-4.6-0.3-6.2,0.8c-3,2.1-5.9,1.2-8.9,0.8c-0.8-0.1-0.8-1-1.1-1.6c-1.7-4-4.6-6-9-6
		c-1.1,0-2-0.6-2.3-1.9c-0.2-0.9-0.3-1.9-0.9-2.5c-0.6-0.7-2.1-1.9-2.5-0.3c-0.8,3.3-2.9,1.2-3.5,0.7c-1.2-1.1-2.4-1.2-3.4-0.4
		c-1.2,1-2.2,0.7-3.4,0.3c-5.5-1.8-10.9-3.6-16.4-5.3c-6.5-2-13.3-2.4-19.9-3.5C249.8,241.6,246.4,240.7,242.5,241.2z"/>
	<path class="st1" d="M195.9,283.7c2.7-3,4.7-6,5.7-9.5c0.3-1,1.4-1.1,2.2-1.4c1.7-0.6,2.3-2,2.4-3.5c0.1-2-0.8-3.4-3.4-3
		c0.4-1.9,0.6-3.7,1.8-5.2c1.9-2.4,1.5-3.4-1.6-4.1c1.7-0.4,2.3-3.8,5-1.3c0.7,0.7,1.9-0.5,1.9-1.4c0.1-1.3,1.2-2.2,0.8-3.7
		c-0.3-1.1,1.3-1.3,2.1-1.7c4.2-2.3,4.8-2.2,8.1,1.3c0.4,0.4,0.8,0.5,1.4,0.5c0.7,0,1.5-0.1,1.9,0.5c2.1,3,4.9,1,7.4,1.1
		c2.2,0.1,4.1-1.6,6.5-0.8c1,0.3,2.1-1.3,3.6-1.5c1.9-0.3,1.4-1.8,1.4-3.3c0-1.2,1-2.2,0.6-3.8c-0.2-1,1.3-0.6,2-0.5
		c4.6,0.7,9.2,1.6,13.9,2.1c10.1,1,19.5,4.6,29.1,7.7c1.6,0.5,3.2,1.6,4.9-0.1c0.4-0.5,1.3-0.4,1.8,0.3c0.3,0.4,0.7,0.6,1.3,0.7
		c2.8,0.1,5.5,0.2,7.4,3.1c1,1.5,3.3,0.7,5.1,1.3c2.4,0.8,3.5,2.5,4.3,4.4c0.8,1.9,1.8,2.8,3.9,2.7c2.9-0.2,5.7,0.5,8.5-1.7
		c1.9-1.5,4.8-0.8,6.9,1c1.3,1.1,2.6,2,4,3c1.3,0.9,3.2,1.4,4.3,0.5c2.5-2,5.1-1,7.7-0.7c1.9,0.2,3.5,0.3,5.4-0.4
		c2.5-0.9,3-0.4,3.1,2.3c0.1,4.8,0.1,4.8,4.7,3.3c1.2-0.4,2.4-0.6,3.6,0.2c1.1,0.8,2.2,0.4,3.3,0c0.4-0.1,0.9-0.2,1.1,0.2
		c0.1,0.2,0,0.7-0.2,0.9c-0.8,1-1.4,2.4-3,2.3c-1.7-0.1-2.7,0.9-3.2,2.3c-1.1,3.2-3.8,4.7-6.6,6.1c-0.8,0.4-1.4,0.7-2,1.4
		c-4.7,6.8-9.5,13.6-14.2,20.4c-1.4,2-2.2,3.6,0.2,5.7c2.3,2,4.1,4.6,6.2,6.9c0.5,0.5,0.9,1,0.5,1.8c-1.1,2.1-1.2,5-4.3,5.7
		c-1,0.2-1.6,1.1-1.6,2.3c-0.3,4.6-0.7,9.2-1,13.8c-0.1,0.8-0.3,1.7,0.1,2.2c3.1,4.1,1,9.9,4.5,13.9c-4.2,1.8-8.5,1.7-12.7,2.1
		c-4.1,0.3-7.9,1-11.9-0.9c-2-0.9-4.5-0.4-6.8,0.7c-3.7,1.9-7.6,2.2-11.7,1c1.7-3.3,4.5-5.8,5.5-9.4c1.3-4.4-1.4-7.9-6.1-7.4
		c-2.8,0.3-5.6,0.9-8.3,1.9c-3.7,1.3-7.5,0.3-11.2-0.2c-4.6-0.6-9.1-1.3-13.6-2.4c-2.7-0.7-3.8,0-4.2,2.8c-0.5,2.8-1.7,5.2-3.7,7.2
		c-0.9,0.9-1.7,1.4-3,0.3c-2-1.6-4.2-3-6.4-4.5c-1.8-1.2-3.8-1.6-6-1.6c-2.5,0-5-0.1-7.5-0.1c-1.5,0-2.1-0.2-1.2-1.8
		c0.7-1.1,1.2-2.4,1.5-3.7c0.9-3,0.3-4.1-3-4.7c-5.1-1-10.2-1.7-15.3-2.5c-2.1-0.3-4.1-0.7-6-1.5c-2.5-1.1-4-2.9-4.3-5.7
		c-0.2-2,0.5-3.2,2.7-3.3c1.3,0,2.7,0,4-0.5c1.1-0.4,2.4-0.8,1.4-2.5c-0.5-0.9,0.3-1.3,0.8-1.9c1.3-1.4,3.1-2.3,4.3-3.9
		c0.7-1,1-1.8,0.1-3.1c-1.7-2.2-1.6-5.5-4-7.4c-0.1,0-0.1-0.2-0.1-0.2c2.1-3.5-1.4-5.3-2.4-7.9c-0.5-1.2-1.9-1.7-3-1.3
		c-1.6,0.6-2.9,0-4.3-0.4c-2.5-0.8-5-1.5-7.5-1.8c-0.6-0.1-1.2-0.2-1.4-0.8c-0.2-0.7,0.2-1.2,0.7-1.5c1.6-1,1.1-1.7-0.2-2.5
		c-0.4-0.2-0.8-0.5-0.6-1.2c0.9-2.7,0.4-3.4-2.5-3.6C197,283.9,196.8,283.8,195.9,283.7z"/>
	<path class="st1" d="M471.8,286c2.4,0.3,3.4-1,3.6-3c0.1-0.8,0.6-1.4,1.2-1.9c1.8-1.7,2.5-3.5,1.9-6.1c-0.5-2.3,1.5-2.3,2.9-2.2
		c1.6,0.1,3.7,1,4.3-0.6c0.6-1.6-1.5-2.8-2.7-3.4c-4.4-2.3-6.5-7.4-11.4-9.1c-0.7-0.2-1.7-1-1-2.2c0.7-1,1.4-0.2,2.2,0
		c3.4,1.1,5.6,3.9,8.3,5.8c5,3.6,9.4,8.4,15.6,10.4c5.6,1.8,9.9,5.8,14.3,9.4c1.6,1.3,3,3,5,3.7c0.6,0.2,1.5,0.7,0.9,1.4
		c-0.7,0.8,0.7,2.4-1.5,2.9c-2.8,0.6-5.2,2.7-8.3,2.7c-0.9,0-1.3,1.1-1.6,1.8c-2.8,5.9-7.5,10.2-12.6,14.1c-22,17.1-44,34.3-66,51.5
		c-2.4,1.9-5.1,3.2-8,4.2c-4.9,1.8-10,2.9-14.5,5.5c-1.3,0.7-2,0.1-2.8-0.7c-2.1-2.1-2.6-4.8-2.8-7.5c-0.1-1.3,0.1-2.7-0.3-4
		c-0.6-2-1.2-3.7,1.4-5.2c2.2-1.3,1.8-6.9-0.1-8.7c-3.3-3.2-10.1-4.3-13.8-1.6c-5.7,4.1-12.5,6-18.8,8.6c-4.2,1.8-8.7,2.9-13,4.4
		c-2.2,0.8-4.4,1.1-6.6,1.1c-2.3,0.1-3.4-2.5-3.3-4c0.1-3.4-0.7-6.3-2.2-9.2c-0.6-1.2-0.2-3-0.1-4.5c0.2-3.7,0.5-7.4,0.8-11
		c0.1-1.1,0.3-2.2,1.6-2.6c3.4-1,3.2-4.4,4.6-6.8c0.4-0.7-0.5-1.5-1-2.1c-2.2-2.5-4.3-5.1-6.6-7.5c-1-1.1-0.9-2-0.2-3.1
		c4.9-7,9.8-14,14.7-21c0.9-1.2,2.4-1.5,3.6-2.1c2.3-1.3,4-3,4.9-5.4c0.4-0.9,0.9-1.7,2-1.7c2,0,3.1-1.3,4.2-2.8
		c1.1-1.5,2-3.1,3.7-4c1-0.5,1.2-1.6,1.4-2.6c0.5-2.4,1.9-3.3,4.3-3.2c3.2,0.1,6.4-0.1,9.5,0c1.2,0,2.3,0.2,2.5,2.1
		c0.1,1.3,0.7,2.5,2.9,1.4c3.6-1.9,7.7-1.9,11.8-1.4c1.4,0.2,2.8,0.2,4.2-0.2c5-1.2,9.6,0.5,14.3,1.8c1.7,0.5,3.4,0.8,5.1-0.2
		c2-1.2,3.6-0.8,5.1,0.8c1.8,2,3.7,2.6,6.6,1.9c3.5-0.8,6.9,0.8,9.7,3c0.4,0.3,0.4,1,0.6,1.6c0.2,0.8,0.4,1.4,1.3,1.6
		c5.1,1.2,8.8,5,13.3,7.4c0.7,0.4,0.9,0.9,0.7,1.7c-0.2,0.7-0.4,1.5-0.6,2.2c-0.3,1.2-1.2,2.7,0,3.5c1.3,0.8,3.1,0.6,4.6-0.1
		c1.2-0.6,1.3-1.7,1-2.8C472.6,287.6,472.2,286.9,471.8,286z"/>
	<path class="st1" d="M172.2,243.7c-5.3,10.6-10.3,20.7-15.4,30.8c-2.6,5.3-5.3,10.6-7.9,16c-1.9,3.8-4.8,6.8-8.4,9
		c-1.5,0.9-3.3,1.4-4.9,2.2c-1.1,0.6-1.5,1.1-1.9,2.3c-1.2,3.1-1.7,6.4-2.9,9.5c-0.8,2.2-0.1,4,1.2,5.6c1.4,1.6,2.3,3.3,2.7,5.5
		c0.7,4,4.3,6.5,8.3,6.2c1-0.1,2-0.1,3,0.2c2.8,0.8,3.5,1.7,2.8,4.6c-0.5,2.3-0.8,4.4,0.2,6.6c0.7,1.4,0,2.1-1.3,1.8
		c-3.7-1-7.1,0.5-10.5,1.1c-1.4,0.3-3,0.3-4.1,1.6c-0.2,0.3-0.8,0.5-1.1,0.4c-3.2-0.4-5.7,1.2-8.4,2.7c-1.5,0.8-3.3,1-5,1.4
		c-3.1,0.8-5.7,4-5.9,7.2c-0.1,0.9,0.4,2.1-0.8,2.4c-1.3,0.4-2.9,0.8-4.1-0.2c-1-0.8-2.1-1.8-2.1-3.3c0-1.6-1-2.5-2.2-2.5
		c-5.2-0.2-8.3-3.8-11.8-6.8c-3.3-2.9-6-6.3-7.5-10.5c-0.5-1.2-1.1-1.6-2.2-1.4c-0.8,0.1-1.7,0.2-2.4,0.5c-4,1.6-7.9,2-11.4-1.2
		c-1.4-1.3-2.9-0.7-4.4,0.2c-2.7,1.7-5.2,3.5-8.7,3.5c-2,0-3.1,2.1-4.3,3.6c-2,2.4-5.2,3.3-8.1,2.3c-1.3-0.5-1.3-1.7-1.4-2.7
		c-0.4-3.8-0.7-7.7-1-11.5c-0.1-1.2-0.5-1.9-1.7-2.5c-3.1-1.6-3.8-4.4-2.1-7.3c14.1-24.5,28.2-48.9,42.2-73.4
		c1.4-2.4,3.2-3.5,6.1-3.5c28.1,0,56.2-0.1,84.2-0.1C170,243.7,170.9,243.7,172.2,243.7z"/>
	<path id="quiche" class="st2" d="M213.7,392.6c-1.9,0.2-3.6-0.3-5.2-0.9c-2.6-1-5.3-1.4-8.1-1.2c-2,0.1-4,0-5.9-0.9
		c-3.9-1.9-7.8-0.3-11.6-0.3c-2.2,0-4.3,0.2-6.5-0.2c-2.4-0.4-7.6,2.8-8.4,5.1c-0.6,1.7-1.3,3.5-1.9,5.2c-0.9,2.7-2.8,4-5.5,3.5
		c-2.6-0.5-2,2-3.4,3c-1-1.3-0.9-2.4,0.1-3.7c1.8-2.4,1.5-3.4-1.5-4.1c-1.8-0.4-2.9-1.2-3.4-2.9c-0.6-2.3-2.8-2.7-4.3-4
		c-1.1-1-1.9-1.7-1.1-3.3c0.7-1.5,0.1-2.5-1.1-3.4c-0.5-0.4-1.2-0.8-1.4-1.4c-0.9-2.9-2.6-5.1-5.2-6.8c-1.4-0.9-0.1-3.4,1.9-4
		c2.8-0.8,3.5-2.5,1.9-4.9c-1.1-1.8-2.1-3.6-2.7-5.6c-0.2-0.8-0.7-1.3-1.3-1.7c-2-1.5-3.5-3.6-5.2-5.3c-1.4-1.4-0.5-3.7-0.4-5.6
		c0.2-2.3,1.3-3.1,3.5-3.4c3.5-0.5,6.8-1.8,10.6-1.2c3,0.5,3.6-0.6,2.6-3.5c-0.6-1.7-0.7-3.3-0.3-5.1c1.1-4.6-1-7.2-5.8-7
		c-2.1,0.1-4.2,1-5.9-1.3c-1.3-1.7-2.4-3.3-2.4-5.6c0-1.4-1.3-2.3-2.1-3.3c-1.6-1.9-2.1-3.8-1.2-6.4c0.8-2.3,1.6-4.7,2.1-7.1
		c0.6-2.9,2.8-3.8,4.8-4.3c2.8-0.7,4.4-3.4,7.2-3.9c0.1-2.6,2.5-3.9,3.5-6.1c7.4-15.1,15-30.2,22.4-45.3c0.9-1.7,1.8-2.4,3.8-2.4
		c19.2,0.1,38.4,0,57.6,0c2.3,0,4.5,0,6.7-0.8c0.8-0.3,1.5-0.3,2,0.5c0.5,0.7,0.2,1.3-0.1,1.9c-0.2,0.4-0.7,0.8-0.6,1.1
		c0.6,1.9-0.1,1.8-1.9,2.6c-1.8,0.8-3.8,0-5.3,1.5c-0.9,0.9-2.3,0-3.5,0.1c-1.2,0.1-2.1,0.1-3.1,0.9c-0.8,0.6-4.4-1.9-4.2-2.9
		c0.3-1.3-0.5-2.5-1.3-2.1c-2,1.2-3.6-0.2-5.3-0.3c-2.1,0-3.7,1.5-5.6,2.1c-2.8,0.9-1.9,3.3-2.7,5.1c-0.1,0.3-0.1,0.6-0.3,1.2
		c-1.5-2-2.8-1.2-4.1-0.1c-0.3,0.2-0.5,0.4-0.8,0.6c-0.7,0.7-2.6,0.3-2.3,1.8c0.3,1.4,1.4,2.4,3,2.7c-1.3,1.3-1.9,2.8-2.3,4.4
		c-0.4,1.7-1.5,3.7,1.8,3.7c0.7,0,1.2,0.8,1.1,1.5c-0.1,1.1-0.5,2.3-1.7,2.6c-2.5,0.6-3.3,2.4-3.8,4.5c-0.6,2.4-2.5,3.9-3.8,5.9
		c-1.6,2.3-1.4,2.6,1.3,3c0.9,0.1,3.2-0.1,1.2,2c-0.3,0.3-0.4,1-0.1,1.2c1.8,1.3,0.9,2.6,0.4,4.1c-0.4,1.1,0.6,2,1.8,2.3
		c3.5,0.7,7.1,1.2,10.4,2.9c0.1,0,0.2,0.1,0.2,0.1c2.4-1.5,3.4,0.9,4.8,1.9c1.8,1.1,2.6,2.6,1.4,4.7c-0.4,0.7-0.6,1.4,0.3,1.9
		c2.8,1.8,2.5,5.3,4.2,7.8c0.5,0.8-0.5,1.5-1.1,2c-1.2,1.1-2.4,2.1-3.6,3.1c-0.6,0.5-1.3,1.1-1,1.9c0.7,1.8-0.3,1.8-1.6,2
		c-2.3,0.3-5.4-0.4-6,3.2c-0.6,3.4,1.4,6.7,4.8,8.3c3.8,1.7,8,1.8,12,2.5c3.1,0.6,6.3,1,9.4,1.5c2.4,0.4,3,1.3,2.3,3.7
		c-1.4,4.4-4.6,7.8-7.2,11.4c-0.5,0.7-1.4,0.5-2.1,0.5c-10.4,0.5-20.5-1-30.5-3.8c-2.2-0.6-4.4-1-6.6-1.7c-1.5-0.5-1.8,0.1-1.8,1.4
		c-0.2,3.8-0.4,7.7-0.6,11.5c-0.1,1,0.2,1.8,0.8,2.5c2.7,3.4,5.2,7,8,10.3c2.3,2.6,5.6,3.9,8.5,5.8c1.7,1.2,3.5,1.9,2.8,4.8
		c-0.4,1.7,1.9,2.8,3.2,3.8C212.6,389.7,213.4,390.8,213.7,392.6z"/>
	<path class="st1" d="M223.6,466.2c-0.7,3,0.4,5.6,1.6,8.3c0.7,1.6,1.2,3.2-0.6,4.7c-1.1,0.9-1.7,2.7-1,4.2c0.7,1.4,2.4,1.2,3.8,1.3
		c1,0.1,2-0.3,2.9-0.7c0.7-0.3,1.2-0.1,1.6,0.4c0.4,0.5-0.1,0.9-0.4,1.3c-1.4,1.4-2.5,3-4.8,3.2c-2.3,0.2-3.1,2.3-1.4,4
		c1.8,1.9,2.6,3.2-0.4,4.5c-0.5,0.2-0.9,1-1.2,1.6c-0.7,1.4-1.4,2.5-3.2,2.7c-1.7,0.2-2.1,1.6-2.1,3.2c0,4.4,0,8.9,0,13.3
		c0,1.3-0.1,2.2-1.7,1.9c-9-1.7-17.8,0.8-26.8,1.2c-10.8,0.5-21.6,0.3-32.3-0.9c-7.7-0.9-15.2-2.7-22.7-4.1c-1.4-0.3-2.7-0.8-4-1.4
		c-7.3-3.2-14.5-6.4-21.8-9.7c-2.2-1-2.9-3.2-1.6-5.3c2.2-3.5,4.5-7.1,6.8-10.5c2.5-3.6,2-7.2,1.6-11c-0.2-1.7-0.2-3.3-0.2-5
		c0-0.5,0.2-1,0.8-1.1c0.5-0.1,0.8,0.3,0.9,0.7c0.5,1.3,1,2.1,2.6,1.2c1.5-0.8,1.7-1.7,1-3.3c-1.6-3.6,0.5-7.5,4.3-8.3
		c0.5-0.1,1-0.1,1.3,0.4c0.5,0.6,0.8,1.3,0.3,2.1c-1.5,2.5,0.2,4.8,0.7,7.1c0.4,1.9,4.1,2,5.8,0.5c0.5-0.5,0.9-1.6,1.7-1.3
		c1,0.4,0.2,1.3,0.1,2c-0.2,1.3,0.2,1.8,1.6,1.9c4.5,0.4,9,0.9,13.5,0.9c1.9,0,3.9-2.4,4-5.2c0.2-4.7,1.3-9,3.7-13.1
		c0.6-1.1,1-1.6,2.2-0.6c1.4,1.1,2.9,0.7,4.2-0.1c1.5-0.9,2.7-0.9,4,0.4c1.2,1.2,2.6,1.6,4.1,0.5c1-0.8,1.3-0.2,1.4,0.7
		c0.1,0.6,0,1.2,0.1,1.8c0.1,0.6,0.4,1.2,1,1.3c0.7,0.2,1.3-0.3,1.6-0.9c0.7-1.3,1.4-2.5,1.9-3.8c1.1-3.2,3.4-5.3,5.9-7.3
		c1.2-1,2-1.1,3.2,0c1.4,1.3,2.8,2.6,3.5,4.5c0.4,1.1,1.1,2.1,1.7,3.1c1.1,1.7,2.2,2.4,3.9,0.6c1.3-1.4,2.8-2.5,3.8-4.3
		c1.1-2.1,3.9-1.1,5.4-2.6c0.3,0.4,0.7,0.8,0.8,1.2c0.6,2.1,1.8,2.1,3.4,1.2c0.6-0.3,1.2-0.5,1.8-0.8c3.4-1.3,3.3-1.3,4.9,2.1
		c0.8,1.7,2.1,2.9,4,3c1.3,0,1.8,0.4,1.9,1.6C223.1,461.6,223.3,463.9,223.6,466.2z"/>
	<path class="st1" d="M34.2,324.8c1.3,1.8,2.1,3.8,4.2,4.6c0.7,0.3,0.7,1.3,0.8,2c0.3,3.8,0.8,7.7,1,11.5c0.1,1.9,1.1,3,2.9,3.2
		c3.4,0.4,6.8,0.6,8.9-3.2c1.2-2.2,3.3-3.4,6.1-3.3c2.1,0.1,3.7-1.6,5.3-2.7c2-1.4,3.8-1.6,5.7,0c2.5,2.1,5.2,2.4,8.2,1.3
		c1.1-0.4,2.2-0.7,3.4-1c1.3-0.4,2.2-0.2,2.9,1.4c2,4.7,5.2,8.5,9.4,11.6c2.9,2.1,3,4.2,0.2,6.5c-2.6,2.1-5.2,4.2-7,7.1
		c-2.6,3.9-3.4,7.7,0.9,11.3c0.8,0.6,1.1,1.5,1.1,2.5c-0.1,4.9-1.9,9-6.3,11.5c-1.1,0.6-1.6,1.4-1.9,2.7c-1.4,6.1-3.6,12-6.9,17.3
		c-1.3,2.1-3.3,3.8-4.7,6c-0.6,1-2,1.2-3.2,1.2c-1.8-0.1-3.7-0.1-5.5-0.5c-5-1.1-9.5,1-14.2,1.8c-6.2,1.1-10.4,4.6-14,9.3
		c-1.6,2.1-1.4,3,1.2,3.5c2.1,0.4,4.3,0.7,6.5,0.8c1.6,0.1,2.7,0.7,3.2,2.3c0.8,2.3,1.5,4.6,2.3,6.9c0.5,1.3-0.1,1.7-1.2,1.9
		c-1.5,0.2-2.7,0.8-3.7,2c-0.7,0.9-1.6,1.1-2.7,0.7c-2-0.6-3.7-0.3-5.3,1.2c-1.5,1.4-3.5,1.1-5.1,0.2c-2.2-1.2-4.1-2.9-6.1-4.4
		c-0.9-0.7-1.2-1.1-0.2-2c1.6-1.4,2.6-3.2,3.2-5.3c0.9-3,2.1-6,3.8-8.7c1.4-2.4,1.6-5,0.5-7.5c-1.9-4.2-1.4-8.9-3-13.1
		c-0.6-1.6-0.2-3.3,1.2-4.6c2.7-2.7,3.5-6,3.2-9.7c-0.2-2.3-0.3-4.6,0-7c0.3-2.1,1.2-2.9,3.1-3.2c3.1-0.5,7.1-5.4,7-8.5
		c0-0.8-0.7-1.3-1.1-1.9c-4.6-6-9.1-12-13.8-17.9c-2.5-3.1-2.6-6.1-0.6-9.4C27.2,337.1,30.7,330.9,34.2,324.8z"/>
	<path class="st1" d="M284.1,544.1c-5-2-9.9-4.1-14.9-6c-1.2-0.5-1.3-1.2-0.9-2.2c1.2-3.4,0.3-6.3-0.8-9.6
		c-1.4-4.1-4.3-7.7-4.5-12.3c0-0.7-0.8-1.4-1.2-2.1c-0.5-0.9-0.7-1.8,0-2.6c0.7-0.7,1.7-1.1,2.8-0.6c0.7,0.3,1.4,0.6,2,1.1
		c2.5,2.4,5.6,3.1,8.7,4c2.5,0.8,4-0.2,5.3-2.1c0.6-1,1.1-2.1,1.7-3.1c0.6-1.1,1.4-1.7,2.6-2.1c3.8-1,6.9-5.5,6.6-9.5
		c-0.2-2.1-0.5-4.2-0.3-6.3c0.1-1.5-0.7-2.5-1.7-3.5c-3.9-3.6-7.5-7.6-13.3-8.4c-1.6-0.2-2.2-1.2-1.4-2.9c1-2.1,2-4.3,2.6-6.5
		c1.1-3.9,4.2-4.7,8.2-4.4c1.6,0.1,1.5-0.3,2.2-1.4c1.6-2.5,2.1-5.4,3.4-8c0.4-0.8,1.6-0.5,2.3-0.4c3.5,0.4,6.3-0.2,8.2-3.7
		c1-2,3-1.9,4.7-0.6c1.3,1,2.7,2,4,3.1c1.1,0.9,1.9,0.8,1.9-0.7c0.1-6,5.3-7.1,9.1-9.5c1.1-0.7,2.2-0.1,3,1c1.3,1.6,2.8,2,4.8,0.8
		c2.2-1.3,4.6-2.4,6.9-3.5c1.6-0.8,2.3-1.9,1.7-3.6c-0.6-1.6,0.1-1.5,1.4-1.5c2.8,0,4.6,1.2,5.7,3.7c1.1,2.5,2.8,3.5,5.6,3
		c1.8-0.3,3.7-0.2,5.5-0.2c2.5,0,3.8,1.8,3.1,4.2c-0.4,1.3-0.9,2.5-1.3,3.8c-0.3,0.8-0.3,1.6-0.1,2.5c0.2,0.8,1.4,1.3,0.8,2.2
		c-0.8,1.3-1.8,2.4-2.8,3.5c-0.6,0.6-0.8,0.2-1.2-0.5c-0.9-2-2.4-2.8-4.4-1.7c-2.1,1.1-2.9,3.3-1.7,5.2c1.1,1.8,1,3-0.7,4.2
		c-0.8,0.6-1.1,1.4-0.7,2.4c0.4,0.9,0.9,1.6,2,1.6c2.6,0,3.6,1.7,3.9,3.8c0.2,1.6,0.6,2.8,2.1,3.7c1.5,0.9,1.1,2.3-0.7,2.8
		c-3.2,0.8-6.3,1.6-9.5,2.3c-6.1,1.3-10.6,4.8-13.5,10.3c-1,1.9-2.1,3.8-3.2,5.7c-0.8,1.4-1.4,2.9-0.5,4.5c0.3,0.5,0.6,1.1-0.1,1.6
		c-0.5,0.4-1.1,0.4-1.7,0.1c-0.4-0.2-0.8-0.4-1.1-0.6c-5.6-3.7-10.7-3.1-15.6,1.6c-3.5,3.4-7.8,5.8-11.7,8.6
		c-2.4,1.7-4.4,3.5-5.5,6.4c-0.7,2-2.4,3.1-4.2,4.1c-4.3,2.2-6.4,7.2-5.2,11.9c0.5,2,1.1,4,1.7,6C284.3,543.9,284.2,544,284.1,544.1
		z"/>
	<path class="st1" d="M219.7,511.7c0-2.2,0.1-4.4,0-6.5c-0.1-1.6,0.4-2.6,2.1-2.8c1.3-0.1,2.1-0.7,2.5-2c0.4-1.3,1.3-2.2,2.5-3
		c2.1-1.3,2.2-2.1,0.5-3.9c-2.2-2.5-2.2-2.6,1-3.8c2.2-0.8,3.6-2.7,4.9-4.5c0.4-0.6,0.3-1.1-0.2-1.6c-0.8-0.8-1.9-1.2-3-0.8
		c-1.5,0.5-2.9,0.7-4.4,0.4c-1.2-0.2-1.3-0.8-1-1.7c0.6-1.6,1.6-3,3.3-3.6c2.1-0.7,3.9-1.8,5.5-3.4c2.1-1.9,5.2-2.1,7.2-4.3
		c1.1-1.2,2.2-2.2,1.8-3.8c-1.8-7.5,2.7-12.9,6.3-18.6c1.3-2.1,2.9-1.8,3.9,0.5c0.9,1.9,2,1,2.9,0.2c1.5-1.3,2.7-2.9,5-3.1
		c0.7,0,1.4-0.1,1.8,0.6c1,1.6,2.5,1.6,4,1.3c3.8-0.7,7.7-1.5,11.5-2.3c1.7-0.3,3-0.6,3.6,1.9c0.6,2.7,3.5,4,5.5,5.6
		c3.5,2.8,3.4,6.1-0.2,9c-0.4,0.3-0.5,0.7-0.5,1.1c0.2,1.2-0.6,1.3-1.5,1.3c-4.5-0.1-7.7,1.5-8.9,6.3c-0.5,2.2-1.5,4.2-2.5,6.3
		c-0.6,1.3-0.5,2.2,0.8,2.8c0.6,0.3,1.2,0.7,1.8,0.8c5.6,0.9,9.1,4.9,13,8.4c0.3,0.3,0.7,0.6,0.7,1c0.1,5,2,10.4-2.4,14.7
		c-0.4,0.4-0.8,0.9-1.4,0.9c-2.9,0.1-4.3,2-5.5,4.4c-1.7,3.5-2,3.4-5.8,2.8c-3.3-0.5-5.8-2.5-8.4-4.2c-1.9-1.3-3.8-1.2-5.3,0.3
		c-1.6,1.5-0.8,3.2,0.4,4.7c0.2,0.3,0.5,0.6,0.5,0.8c-0.1,4.1,3,7.1,3.8,10.8c0.3,1.2,0.7,2.4,1.4,3.5c1.6,2.6,0.8,5.2,0,7.7
		c-0.4,1.4-1.4,0.4-2,0.1c-3.4-1.5-6.7-3-10.1-4.5c-9.2-4.1-18.4-8.1-28.3-10c-0.1,0-0.2,0-0.2-0.1c-2.1-0.7-5,0.1-6.2-1.5
		c-1.4-1.8-0.3-4.7-0.5-7.1C219.7,512.5,219.7,512.1,219.7,511.7z"/>
	<path class="st1" d="M253.6,396.3c-2.8-0.2-5.1-0.3-6.2-3c-0.7-1.7-3.2-1.7-4.7-0.3c-2.6,2.4-3.2,2.4-6,0.5
		c-0.9-0.6-1.7-0.4-2.6,0.1c-3.3,1.9-7,3-10.5,2.2c-2.4-0.5-5.8-0.1-7.3-2.1c-2.2-3-4.2-6.1-7-8.6c-0.1-0.1-0.2-0.5-0.1-0.7
		c1.4-3.2-1.1-4.2-3.1-5.1c-7.3-3.4-11.6-9.8-16.3-15.9c-0.9-1.2-0.8-2.6-0.6-3.9c0.4-2.5,0.5-5,0.4-7.5c0-1.8,0.5-2.3,2.4-1.8
		c5.6,1.4,11.2,2.8,16.8,3.9c6.7,1.3,13.4,1.4,20.2,0.9c1.7-0.1,2.3-1.5,2.8-2.6c1.7-3.3,4.1-4.5,7.7-3.7c0.6,0.2,1.4,0.2,2,0.1
		c6.3-1.1,11,2,15.4,5.7c1.7,1.4,2.9,1.1,4.1-0.1c2-2,3.7-4.2,4.2-7.2c0.5-3.2,1-3.4,4.3-2.5c6.1,1.6,12.3,2.2,18.5,2.9
		c2.3,0.3,4.7,0,6.9-1c2.6-1.3,5.3-1.3,8.1-1.3c2.6,0,4.6,2.9,3.6,5.3c-2.1,5.1-4.9,9.4-9.8,12.6c-11.5,7.5-22.7,15.5-34,23.2
		c-1.8,1.2-1.9,3.1-2.4,4.8C258.7,395.7,257.9,396.3,253.6,396.3z"/>
	<path class="st1" d="M402.5,372.6c-2.6,2.4-3.4,5.6-4.3,8.6c-0.2,0.6-0.4,1.2,0.2,1.6c3.3,2.5,1.9,5.2,0.6,8
		c-0.1,0.1-0.2,0.3-0.3,0.4c-0.1,0-0.4,0-0.4-0.1c-2.6-4.1-5.7-4.2-9.1-0.2c-1.6,1.9-3,3.1-5.4,1.2c-1.2-1-2.7-0.5-4.1,0.1
		c-2.7,1.1-5.3,1.9-8.3,0.1c-2.4-1.5-5-0.7-7.2,1.2c-0.4,0.4-1,0.7-1.4,1.1c-5.6,5.7-11.8,5.3-18.3,2c-0.4-0.2-0.9-0.4-1.3-0.7
		c-5.1-2.7-5.1-2.6-9.2,1.4c-1.1,1.1-1.7,2.1-1.3,3.8c0.7,3-1.4,5.2-2.6,7.6c-0.3,0.6-0.9,0.5-1.5,0.5c-4.1,0.1-7.4-0.9-8.6-5.4
		c-0.1-0.4-0.4-0.7-0.6-1.1c-2.6-4-0.6-7.9,4.3-8.3c2.4-0.2,3.4-1.2,3.4-3.6c0-1-0.4-1.8-1.3-1.9c-2.6-0.3-3.8-2.2-5.1-4.1
		c-1.4-2-2.8-3.9-4.6-6.5c1.8,0,3.2,0,4.5,0c3-0.1,3.5-1,1.8-3.6c-1.8-2.7-3.6-5.4-5.4-8.1c-0.6-0.9-1.2-1.8-1.8-2.7
		c-1.9-2.8-1.4-3.8,2-4c1.3-0.1,2.7-0.2,3.9,0.5c2.9,1.5,5.8,1.3,9,1.1c6.7-0.5,13.2-1.7,19.8-2.8c7-1.2,13.5-3.8,20-6.4
		c5.8-2.3,11.8-4.1,17-7.9c3.2-2.3,9-1.3,12,1.4c2,1.8,1.6,6.6-0.8,7.8c-1.4,0.7-1.6,1.6-1.3,2.9c0.6,2.4,0.8,4.8,0.9,7.2
		C398,367.2,399.2,370.3,402.5,372.6z"/>
	<path class="st1" d="M375.5,455.3c-3.7-2.3-3.7-2.3-7.1,0.4c-0.3,0.3-0.7,0.7-1.1,0.6c-2.5-0.5-5.1-0.9-7.5-1.6
		c-0.8-0.3-1.3-1.4-0.8-2.6c0.5-1.1,0.8-2.4,1.2-3.6c1.2-3.7-0.6-6.2-4.5-6.2c-0.7,0-1.4-0.1-2,0c-3.8,0.5-7.1,0.3-9-4.1
		c-1-2.5-3.9-2.3-6.2-2.5c-3.2-0.3-3.3-0.4-2.2-3.4c0.9-2.5,1.8-5,2.7-7.5c0.8-2.2,1.8-4.4,0.4-6.7c-0.6-1,0.2-2,0.2-2.9
		c0.2-4.5-1.4-6.2-5.8-6c-0.7,0-1.3,0-2,0c0-1.3,0.8-2.2,1.4-3.2c0.8-1.5,1.2-3.1,0.9-4.8c-0.2-1.2,0-2.2,1.1-3.1
		c4.4-3.9,3-3.4,7.8-1c2.5,1.2,5,2.7,7.9,3c4.5,0.5,8.6,0,11.9-3.7c3.1-3.4,6.6-4.7,10.9-1.8c1.6,1.1,3.4-0.1,5.1-0.6
		c2.2-0.7,4-1.5,6.3,0.3c1.5,1.2,3.4-0.2,4.5-1.6c0.8-1,1.6-1.9,2.8-2.4c1.3-0.5,2.7-2.3,3.9-0.3c1.6,2.8,2.1,3.2-0.4,5.3
		c-4.3,3.7-4.4,6.3-0.8,10.6c1.6,1.9,2.9,3.9,3.8,6.2c0.9,2.4,2,4.7,4,6.6c1.3,1.2,1.3,2.9,0.1,4.3c-1.1,1.2-1.3,2.6-1.1,4.2
		c0.4,2.2,0.5,4.5,0.2,6.8c-0.3,2.4-1.5,3.1-3.9,2.4c-1-0.3-1.9-0.7-2.9-0.8c-1.5-0.2-3.3-0.2-4.2,1.1c-2.5,3.7-6.9,5.7-8.8,9.9
		c-0.2,0.4-0.7,0.8-1.2,0.9c-4.3,0.7-5.1,3.7-5,7.4C375.8,454.9,375.6,455.1,375.5,455.3z"/>
	<path class="st1" d="M105.8,503c-1.3,0.3-2-0.4-2.8-0.8c-2.7-1.5-5.3-3.3-8.1-4.5c-3.3-1.4-4.5-3.9-4.6-7.2c0-0.7,0-1.4,0.5-1.9
		c3.1-3.2,3.5-7.2,3.8-11.3c0.2-3,1.1-5.7,2.7-8.3c0.6-1,0.7-2,0.8-3.1c0-2,0-4,0.2-6c0.3-2.6,0.3-5-1.3-7.2
		c-0.5-0.7-0.6-1.7-0.5-2.7c0.5-5.2,1-10.5,4-15c1.3-2,2-4.2,1.7-6.7c-0.2-1.3,0.4-2.4,1.3-3.4c2.7-3,5.7-5.7,9.1-7.9
		c1.3-0.9,1.6-0.4,2.3,0.7c2,3.4,0.7,6.4-1,9.4c-1.7,2.9-1,4.1,2.3,4.9c1.2,0.3,2.5,0.4,3.7,0.6c3.3,0.6,3.8,0.3,4-3
		c0.1-1.2-0.2-2.6,1.4-3.1c1.4-0.4,2.5,0.4,3.2,1.4c0.9,1.2,2,1.2,3.3,1c3.7-0.6,8.5,3.9,8.2,7.6c-0.2,3.2,0.7,3.9,3.8,3
		c0.9-0.3,1.9-0.8,2.7-1.2c2.1-1,4.1-0.9,5.9,0.4c2.1,1.4,4.1,2.9,6,4.5c2.7,2.2,1.7,5.2,1.1,7.9c-0.8,3.3-2.4,6.4-4,9.4
		c-1.4,2.6-2,5.3-2,8.2c0,1.2,0,2.3-0.5,3.4c-0.9,2.2-2.2,3.2-4.8,2.7c-3.1-0.5-6.3-0.6-9.5-0.8c-1.5-0.1-2.2-0.4-1.8-2
		c0.3-1.2-0.4-2-1.3-2.4c-1.1-0.5-1.4,0.6-2,1.1c-0.5,0.4-0.9,1-1.5,1.3c-1.6,0.9-3.9-0.2-3.7-1.8c0.3-2-1.5-3.9,0.1-6
		c0.6-0.8-0.6-2.1-1.5-2.9c-0.9-0.7-1.8-0.3-2.5,0.2c-3.8,2.7-6.8,3.5-4.4,9.8c0.2,0.5,0.2,1-0.3,1.3c-0.8,0.5-0.9-0.2-1.3-0.7
		c-0.5-0.7-1.1-1.6-2.2-1.3c-1.2,0.3-1.7,1.3-1.9,2.4c-0.1,1.2-0.2,2.5,0.2,3.7c1.4,5.6,0,10.6-3.4,15.2c-1.3,1.7-2.4,3.5-3.5,5.2
		C106.4,499.1,105,500.7,105.8,503z"/>
	<path class="st1" d="M224.9,466.8c-0.3-2.5-0.7-5.4-1.1-8.3c-0.1-1-0.5-1.9-1.8-2.1c-3.3-0.5-5.8-3.4-5.1-6.6
		c0.9-4,1.4-8.1,1.6-12.2c0.1-3,2.2-5.4,2.2-8.3c0-0.7,0.5-1.7-0.1-2.2c-3-2.5-3.3-6.5-5.6-9.3c-0.8-1-1.5-2-2.4-2.9
		c-0.9-1-1.8-1.6-3.3-1.3c-2.7,0.6-4.4-1.1-6.1-2.7c-0.7-0.7-0.3-1.2,0.1-1.7c1-1.4,1.6-2.9,2-4.6c0.4-1.8,1.5-2.6,3.4-3.4
		c2.5-1.1,5.9-1.8,6.8-5.3c0.1-0.5,0.6-1,1.1-0.6c1.7,1.1,3.8,0.9,5.7,1.5c2.5,0.9,5.3,0.4,7.9-0.3c1.1-0.3,2.3-0.7,3.3-1.3
		c1.3-0.7,2.2-1,3.5,0.3c1.3,1.3,4.8,0.6,5.9-0.9c0.8-1.1,1.8-2,3.1-1.2c1.3,0.9,0.2,2.1-0.3,3.1c-0.7,1.2-1.8,2.4-0.6,3.9
		c1.1,1.4,2.5,1.2,4.1,0.9c1.4-0.3,3.3-1.2,4.2,0.3c1.4,2.3,2.3,4.9,1.6,7.6c-0.3,1.4-2,2.4-0.9,4.1c1.3,2.1,2.8,4,5.1,5
		c1.9,0.8,3.9,1.6,5.9,2.2c2,0.6,3.2,2,4.6,3.3c0.8,0.7,0.3,1.3,0.1,2c-0.3,1.1-1.1,1.6-2,2.2c-3.2,2.1-5,4.7-5.3,8.8
		c-0.1,2.2-1.6,4.3-1.5,6.7c0,0.2-0.4,0.7-0.6,0.7c-2.4,0.1-3.8,1.9-5.4,3.3c-0.5,0.5-1,0.4-1.4-0.3c-1.5-2.5-4-2.9-5.5-0.5
		c-2.7,4.1-5.5,8.2-7,13c-0.4,1.5-0.2,3,0,4.5c0.5,3.7-0.3,5.6-3.8,7c-2.4,1-4.5,2.1-6.3,3.9c-0.7,0.7-1.7,1-2.7,1.3
		c-0.5,0.2-1.2,0.3-1.4-0.5C226.1,473,224.1,470.5,224.9,466.8z"/>
	<path class="st1" d="M316.9,398.4c-0.9,1.3-0.1,2.3,0.5,3.4c1.4,2.3,2.7,4.6,4.1,6.9c0.7,1.1,1.6,1.6,2.9,1.5
		c3.7-0.1,7.3,0.8,11,0.4c2.2-0.2,3.4,1.7,2.9,4.4c-0.3,1.8-0.5,3.5,0.4,5.1c0.5,1,0,1.8-0.3,2.6c-1.3,4.1-3.2,7.9-4,12.1
		c-0.2,1-0.3,1.6,1,2.1c1.9,0.8,1.8,3.3,0,4.3c-2.4,1.3-5,2.4-7.4,3.7c-1.3,0.7-1.9,0-2.5-0.8c-1.8-2.4-3.9-1.9-6-0.7
		c-2.1,1.2-4,2.7-6,4.1c-1.8,1.3-2.1,3.3-2.3,5.7c-1.5-1.2-2.8-2.2-4-3.1c-2.5-1.9-4.6-1.6-6.5,0.9c-3,3.8-8.3,4.4-12.1,1.4
		c-1.4-1.2-2.8-2.3-4.2-3.5c-1.1-0.9-2-2-2.1-3.6c-0.1-1.9-1.1-2.1-2.7-1.8c-4.5,0.9-9,1.8-13.6,2.6c-2,0.4-3.6-1-3.6-3
		c0.1-3.7,1.7-7.1,2.4-10.6c0.3-1.5,2.3-2.3,3.6-3.4c0.9-0.7,2-1.4,2.3-2.5c0.5-1.6,1.4-2.8,3-3.4c0.4-0.2,1-0.6,1.1-1
		c0.5-2.9,3.1-3.2,5.2-4c2.1-0.8,4.2-1.5,6.5-0.2c1.2,0.7,2.1,0.1,2.7-1c0.7-1.2,1.6-2.4,2-3.8c1.1-3,3.3-3.9,6.2-4.1
		c1.1-0.1,2.2-0.3,3.2-0.6c4.2-1.2,7.5-3.5,9.9-7.2C311.9,399.4,313.6,397.4,316.9,398.4z"/>
	<path class="st1" d="M107.8,419.2c-1.9,1.7-3.6,3.4-5.4,5c-1,1-1.8,2.2-1.6,3.6c0.5,3.8-1.4,6.8-3.1,9.8c-2.3,4.1-1.9,8.7-2.6,13.1
		c-0.1,0.7,0.2,1.7,0.7,2.4c1.8,2.5,1.3,5.2,1.2,8c-0.1,1.2-0.3,2.3-0.3,3.5c0,1.9-0.4,3.5-1.3,5.2c-1.5,3-2.3,6.2-2.4,9.7
		c0,1.7,0,3.6-1,5.1c-2,2.8-4.4,5.5-2.3,9.5c-5.8-3.3-11.2-6.7-16.4-10.3c-10.3-7.2-19.7-15.3-28.8-23.8c-3.7-3.5-8.1-6.2-12.2-9.3
		c-0.9-0.6-1.7-1.3-2.5-1.9c1.1-0.7,2.1-1.1,2.9-1.8c1.2-1.1,2.5-1.3,3.9-0.8c1.3,0.5,2.6,0.4,3.5-0.7c1.9-2.4,5-2,7.4-3.5
		c1-0.7,2.4,0.5,3.4,1.1c4.5,2.8,9.1,2.3,13.8,0.9c0.5-0.2,1.3-0.2,1.6-0.6c1.9-3,4.6-5.6,5.8-9c0.8-2.2,2.2-4,2.8-6.1
		c1.5-5.3,5.4-8.2,9.5-11.2c0.3-0.2,0.6-0.6,1-0.8c0.4-0.2,0.9-0.6,1.4-0.2c0.5,0.4,0.3,0.9,0.1,1.4c-0.6,1.5-1.3,2.9-1.7,4.5
		c-0.3,1-0.9,2.5,0.6,3.1c1.6,0.6,3.4,1.7,4.9,0c0.8-0.9,1.4-1.2,2.7-0.9c1.3,0.3,2-1.1,2.6-2.1c0.8-1.4,1.7-2.2,3.4-1.4
		c1.6,0.7,2.9-0.2,4.2-1.1C104.6,418.7,105.8,418,107.8,419.2z"/>
	<path class="st1" d="M251.1,399.7c-0.9,0.1-2.2,0.4-3.5,0.6c-0.7,0.1-1.4,0-1.6-0.8c-0.3-1,0.4-1.7,0.9-2.5
		c0.3-0.6,0.7-0.7,1.5-0.4c2.2,0.9,4.4,1,6.8,0.9c3.9-0.1,5.7-2,6.2-5.6c0.4-2.8,2-4.5,4.3-6.1c10.3-6.9,20.5-13.9,30.6-21.1
		c2.8-2,5.6-2.9,8.9-2.1c1.8,0.4,3.5,0.2,5.2-0.4c1.2-0.4,2-0.3,2.7,0.9c2.7,4.1,5.4,8.1,8.2,12.1c1,1.5,0.6,2.1-1,2.2
		c-1.2,0.1-2.3,0.1-3.5,0.1c-1.7,0-2.2,0.9-1.2,2.2c2,3,4.2,5.9,6.3,8.8c0.7,0.9,1.7,1.4,2.8,1.5c1.1,0.1,1.4,0.6,1.3,1.6
		c-0.1,1.1-0.6,1.5-1.6,1.5c-2.5-0.2-4.4,0.8-5.7,2.9c-0.6,1-1.5,1.3-2.6,1.1c-2.4-0.4-4.3,0.6-5.6,2.6c-3.6,5.4-8.5,8.3-15,8.6
		c-2.1,0.1-4,1.1-4.8,3.4c-0.3,1-1.1,1.9-1.5,2.9c-0.8,1.9-1.6,3-4,1.7c-2.2-1.1-4.4,0.3-6.5,1.1c-1.9,0.7-4.3,0.9-4.8,3.7
		c-0.3,1.5-3,2.3-3.9,1.3c-2.4-2.8-5.9-3.4-9-4.6c-1.5-0.6-2.8-1.4-3.9-2.5c-1.7-1.7-2.7-3.2-0.9-5.6c1.2-1.6-0.8-8.5-2.3-9.6
		C253.1,399.6,252.3,399.7,251.1,399.7z"/>
	<path class="st1" d="M106.5,361.2c-2.3,0.9-4.5,1.8-6.7,2.6c-1.5,0.5-2.1,1.4-1.9,3c0.9,5.7,2.6,11.2,4.1,16.8
		c0.2,0.7,0.9,1.4,1.5,2c1,0.9,1.7,1.7,1.2,3.4c-0.6,2.2,2.8,5.3,5.1,5.1c3.9-0.3,3.9-0.3,4.5,3.6c0.2,1.3,0.5,2.5,1.5,3.5
		c2.5,2.6,2.6,5.7,0.9,8.7c-1.7,3-3.9,5.7-7.1,7.3c-0.6,0.3-1.2,0.7-1.9,0.3c-2.1-1-3.9-0.2-5.6,1.1c-1.1,0.8-2.1,1.2-3.5,0.5
		c-1.6-0.8-2.8-0.1-3.7,1.4c-0.7,1.2-1.3,2.7-3.3,1.7c-0.7-0.3-1.3,0.3-1.6,0.9c-0.9,2.1-2.6,1.3-3.8,0.7c-1.3-0.6-0.3-1.9,0-2.9
		c0.5-1.4,1.4-2.7,1.5-4.2c0.1-2.1-1.1-3-2.7-1.9c-2.7,1.9-5.2,4.2-8.2,5.6c-0.3,0.1-0.5,0.5-0.6,0.8c-1,3.8-3.7,6.8-4.8,10.4
		c-1.2,3.9-3.9,6.7-5.8,10.1c-0.4,0.7-1,0.8-1.6,1c-4.4,1.3-8.6,1.6-12.8-0.9c-1.4-0.8-2.9-1.7-4.7-1.2c-1.2,0.3-1-0.9-1.3-1.5
		c-0.9-2.3-1.7-4.7-2.5-7.1c-0.5-1.3-1.4-1.9-2.8-2.1c-2.4-0.2-4.8-0.6-7.2-0.9c-1.5-0.2-1.5-0.8-0.6-1.8c3.2-3.9,6.5-7.6,12-8.4
		c4.2-0.6,8-3,12.4-2.5c2.4,0.3,4.8,0.5,7.2,0.7c2.7,0.2,4.5-0.8,6.3-3c3.2-3.9,5.6-8.2,7.7-12.7c0.7-1.5,1.4-3,1.4-4.5
		c0-2.3,2.2-3.8,1.8-6.1c-0.1-0.6,0.8-0.7,1.3-1c4.5-3,6.9-7.1,6.6-12.6c-0.1-1.2-0.4-2.3-1.4-3.1c-3.6-3.1-3.1-5.9-1-9.3
		c1.6-2.7,3.9-4.8,6.4-6.7c1.2-1,2.7-1.8,3-3.6c0.2-1,0.7-0.6,1.3-0.5c1.6,0.4,3.2,0.8,4.9,1.2c1.3,0.3,2.3,0.8,2.4,2.4
		C104.7,359.2,106,359.9,106.5,361.2z"/>
	<path id="chimaltenango" class="st2" d="M175.2,460.8c-0.1-1.2-0.1-1.7-0.1-2.2c-0.1-2.9-0.8-3.3-3.2-1.7c-1.2,0.8-1.9,0.2-2.6-0.5
		c-1.6-1.6-3.1-2-5.1-0.6c-1.2,0.9-2.6,1-3.9-0.2c-1.4-1.2-0.1-2.1,0-3.1c0.6-3.5,2.2-7.1-1.1-10.3c-0.5-0.4-0.3-1.1-0.2-1.7
		c0.3-2.3,0.8-4.6,0.8-7c-0.1-3.2,0.8-6,2.3-8.8c3.1-6,2.5-12.2,0.8-18.4c-0.4-1.5-0.2-2.3,1.3-2.8c1.5-0.5,2.4-1.7,2.9-3.2
		c0.3-1,0.8-2,1-3.1c1.3-5.4,3.7-5.9,9.6-6.7c3.4-0.4,6.8,0.3,10.2-0.5c1-0.2,2.1-0.3,3,0c6.9,2.2,14.5,1,21.3,3.8
		c0.8,0.3,2,0,2.1,1.3c0.1,1.3-0.5,2.2-1.7,2.5c-2,0.6-3.2,2.5-5.6,2.6c-1.2,0-2.1,1.4-2.4,2.7c-0.7,3.1-2.4,5.7-4.1,8.3
		c-1.7,2.6-1.8,5.2-1,8.1c1.3,4.5-0.3,8-3.8,11.2c-4.9,4.3-9.6,8.9-10.2,16.1c-0.1,0.7-0.4,1.1-0.9,1.4c-4,2.7-6.7,6.4-8.3,11
		C176.2,459.4,175.9,459.8,175.2,460.8z"/>
	<path class="st1" d="M148.7,393.5c-0.6,0.7-1.4,1.2-1.8,2c-2,3.6-4.6,4.4-8.9,3.8c-3.4-0.5-7.1-0.1-10.7-0.3
		c-2.6-0.2-4.1,2.1-5.8,3.7c-1.6,1.4-2.5,1.7-3.6-0.5c-1-2-2.2-3.7-2.4-6.1c-0.3-3.1-1.1-3.5-4.4-3.1c-3.2,0.3-5-1.4-4.9-4.6
		c0-1,0.2-2.1-0.8-2.7c-1.9-1.3-2.5-3.2-3-5.3c-1-4.2-2.1-8.4-3.1-12.7c-0.4-1.4-0.1-2.3,1.5-2.8c3.5-1.2,6.8-3,10.6-2.9
		c1.6,0,2.3-0.8,2.5-2.5c0.4-4.8,2.1-6.6,6.7-7.6c1.9-0.4,3.7-0.9,5.3-2.1c1-0.7,2.2-1.2,3.4-1.4c2.8-0.6,3.1-0.1,2.7,2.7
		c-0.3,2.3,0,4.2,2.1,6c3,2.7,6.1,5.6,6.9,10c0.1,0.7,0.7,0.9,1,1.3c1.1,1.5,0.7,2.6-1.1,3.1c-1.6,0.5-2.7,1.5-3.1,3.2
		c-0.4,1.7,0.4,2.7,1.7,3.5c1.6,1,2.9,2.2,3.2,4.2c0.1,0.6,0.3,1.2,0.7,1.6c1.9,1.6,2.9,3.1,2.1,5.9
		C145,391.6,147.7,392,148.7,393.5z"/>
	<path class="st1" d="M157.8,441.2c-1.8-1.3-3.2-2.3-4.6-3.4c-2.4-1.7-4.9-2-7.5-0.5c-0.6,0.4-1.3,0.8-2,1c-1.6,0.4-2.8,0.5-2.4-1.9
		c0.4-2-0.4-3.6-2-4.8c-1-0.8-2-1.5-2.8-2.5c-1.1-1.4-2.3-1.9-4.1-1.4c-1.3,0.4-2.5,0.1-3.6-1.1c-1.1-1.2-2.6-1.8-4.3-1
		c-1.6,0.7-2.1,2-2,3.7c0.1,1.8-0.4,2.5-2.4,2.2c-6.6-0.9-6.7-0.9-3.6-6.8c1.5-2.9,0.3-5.2-0.8-7.6c-0.6-1.4-0.6-2.4,0.4-3.6
		c1.6-1.8,2.5-3.9,3.2-6.2c1.3-4.3,7.6-7.9,11.9-6.7c1.5,0.4,2.9,0.6,4.3-0.1c1.3-0.6,2.6-0.4,3.9,0c3.2,1,4.9,0.4,7-2.2
		c0.9-1.1,1.7-2.3,2.6-3.4c0.8-1,1.6-1.2,2.1,0.3c0.8,2.2,2.1,3.9,4.7,4.2c1.3,0.2,1.7,1,0.7,2c-1,1-1,2.2-1,3.5
		c0.1,1,0.3,1.9,1.4,2.1c1,0.2,1.7-0.3,2.2-1.2c0.3-0.6,0-1.7,1.2-1.5c1.2,0.2,1.2,1.2,1.4,2.1c2.1,7.4,1.8,14.6-2.4,21.4
		c-0.9,1.5-0.4,3.3-0.6,4.9C158.3,435.4,158.1,438,157.8,441.2z"/>
	<path id="sacatepequez" class="st2" d="M186.8,446c0.1-2.7,1.6-5.3,3.3-7.7c1.6-2.3,3.6-4.5,5.7-6.3c1.9-1.6,3.2-3.4,4.5-5.5
		c1.4-2.3,1.2-4.3,0.6-6.7c-0.6-2.3-1.4-4.7,0.2-7c0.7-1,1-1.4,2-0.4c1.8,1.9,4,3,6.8,2.4c0.6-0.1,1.1,0.2,1.5,0.7
		c1.8,2.3,4.1,4.2,4.7,7.3c0.2,0.8,0.4,1.7,1.1,2.2c3.2,2.6,2.3,5.6,0.9,8.7c-1.2,2.6-0.7,5.5-1.2,8.2c-0.1,0.7-0.1,1.5-0.2,2.3
		c-0.4,5.2-2.4,7.4-7.4,8.3c-0.8,0.2-1.3-0.1-1.6-0.8c-0.8-2-1.7-3.1-3.7-1c-0.8,0.8-2.6,0.2-3.6,1.3c-1.4,1.5-2.4,3.3-4.1,4.7
		c-1.4,1.2-2.1,0.9-2.8-0.5c-1.6-3.1-3.2-6.3-6.3-8.3C186.7,447.5,186.6,446.9,186.8,446z"/>
	<path class="st3" d="M376,454.8c0.2,0.3,0.4,0.7,0,0.9c0,0-0.3-0.3-0.5-0.4C375.6,455.1,375.8,454.9,376,454.8z"/>
	<path class="st3" d="M370.4,271.8c0-0.1-0.1-0.1-0.1-0.2c0.1,0,0.1-0.1,0.2-0.1c0.1,0,0.1,0.1,0.1,0.2
		C370.5,271.7,370.4,271.7,370.4,271.8z"/>
	<path class="st3" d="M284.4,543.8c0,0.2,0,0.4,0,0.5c-0.1-0.1-0.2-0.2-0.3-0.2C284.2,544,284.3,543.9,284.4,543.8z"/>
</g>
</svg>
